<svg version="1.1" id="Layer_1" xmlns="http://www.w3.org/2000/svg" xmlns:xlink="http://www.w3.org/1999/xlink" x="0px" y="0px"
	 width="100%" viewBox="0 0 800 800" enable-background="new 0 0 800 800" xml:space="preserve">
<path fill="#FFFFFF" opacity="1.000000" stroke="none" 
	d="
M347.000000,801.000000 
	C231.333328,801.000000 116.166664,801.000000 1.000000,801.000000 
	C1.000000,534.333313 1.000000,267.666656 1.000000,1.000000 
	C267.666656,1.000000 534.333313,1.000000 801.000000,1.000000 
	C801.000000,267.666656 801.000000,534.333313 801.000000,801.000000 
	C649.833313,801.000000 498.666656,801.000000 347.000000,801.000000 
M194.984833,482.997498 
	C195.045715,486.997314 195.106598,490.997162 195.069138,495.821075 
	C195.654922,502.416290 196.691437,508.719177 203.995407,511.550446 
	C205.626984,512.182861 207.128418,513.193176 208.618347,514.141724 
	C215.885391,518.768066 222.911346,523.824341 230.432785,527.987427 
	C240.538971,533.581116 250.806046,538.993591 261.399536,543.568054 
	C273.086914,548.614929 285.200775,552.684021 297.196075,556.991821 
	C298.331085,557.399475 300.509399,556.946472 301.238617,556.080566 
	C304.180023,552.587830 307.002045,548.935547 309.389435,545.048218 
	C313.766418,537.921265 317.804565,530.586243 321.936401,523.420471 
	C310.154022,517.766113 298.954834,512.391663 287.752747,507.015778 
	C291.307556,499.715271 294.697113,498.080231 299.647125,499.858124 
	C312.786530,504.577271 325.860779,509.582184 339.251801,513.472351 
	C360.329590,519.595520 382.026550,522.323486 403.967224,521.868530 
	C414.617523,521.647705 425.271851,520.281921 435.865784,518.963806 
	C457.808624,516.233704 478.885468,510.165802 498.948761,500.924011 
	C504.226837,498.492767 507.982971,498.669128 511.981812,502.908142 
	C514.087708,505.140503 513.789612,506.456451 511.521332,507.746368 
	C507.686127,509.927460 503.814880,512.064026 499.846893,513.988586 
	C493.396881,517.117126 486.856628,520.059570 479.652283,523.406738 
	C485.864563,533.584473 492.024902,543.473572 497.961090,553.495422 
	C500.614075,557.974304 503.645691,558.524963 508.145508,556.128845 
	C511.107941,554.551453 514.754822,554.307068 517.839966,552.904358 
	C534.457458,545.349121 551.178528,537.984497 567.492737,529.813232 
	C577.608887,524.746277 587.300720,518.714783 596.716492,512.418457 
	C601.242676,509.391785 607.861389,506.855530 606.244568,498.240021 
	C606.522888,492.851959 606.801208,487.463898 607.773376,481.564270 
	C607.849670,477.150269 608.074036,472.732422 607.959167,468.323395 
	C607.851379,464.185333 607.384949,460.056610 607.016785,455.059814 
	C606.952698,453.040771 606.888611,451.021729 606.953186,448.168640 
	C605.297729,434.205597 604.261902,420.133911 601.837524,406.305695 
	C598.436951,386.909546 593.763062,367.720337 586.044922,349.522095 
	C579.400879,333.856293 572.358398,318.334747 564.817261,303.083099 
	C560.077454,293.496979 554.185730,284.469666 548.602844,275.318481 
	C547.160583,272.954376 545.335876,270.024872 543.005249,269.129700 
	C526.569336,262.817108 510.114624,256.465759 493.341736,251.149551 
	C482.397034,247.680634 470.907898,245.929596 459.267944,243.320587 
	C456.564056,249.187698 454.230652,254.208420 451.935089,259.246399 
	C450.317383,262.796722 448.683929,265.729279 443.694977,265.105225 
	C435.203278,264.042999 426.630676,263.627716 417.587219,262.234955 
	C407.547516,262.156952 397.507782,262.046906 387.468079,262.043518 
	C386.280426,262.043121 385.092560,262.627289 382.988861,262.991455 
	C375.949707,263.638031 368.878937,264.051117 361.880310,264.997345 
	C354.984070,265.929779 353.252777,265.095856 350.262085,258.752197 
	C347.769928,253.465988 344.937683,248.340103 342.360229,243.345108 
	C339.230469,244.002747 336.837128,244.423050 334.486481,245.013306 
	C321.229248,248.342285 307.893188,251.402557 294.763428,255.178268 
	C286.204865,257.639465 277.895752,261.019043 269.583435,264.265076 
	C265.252686,265.956238 259.847076,267.201355 257.221649,270.483490 
	C251.364853,277.805298 246.542389,286.058716 242.042313,294.336945 
	C235.428314,306.503876 228.859268,318.763702 223.391800,331.466339 
	C217.862595,344.312378 213.020020,357.548676 209.116608,370.974518 
	C204.753296,385.982117 201.248550,401.295471 198.392548,416.665771 
	C196.420456,427.278992 196.183945,438.214691 195.035538,449.862488 
	C194.998413,451.883087 194.961304,453.903687 194.228012,456.433807 
	C194.153397,460.849854 193.932144,465.269745 194.046753,469.680878 
	C194.154297,473.819794 194.617020,477.949524 194.984833,482.997498 
z"/>
<path fill="#5865F2" opacity="1.000000" stroke="none" 
	d="
M418.092072,262.940613 
	C426.630676,263.627716 435.203278,264.042999 443.694977,265.105225 
	C448.683929,265.729279 450.317383,262.796722 451.935089,259.246399 
	C454.230652,254.208420 456.564056,249.187698 459.267944,243.320587 
	C470.907898,245.929596 482.397034,247.680634 493.341736,251.149551 
	C510.114624,256.465759 526.569336,262.817108 543.005249,269.129700 
	C545.335876,270.024872 547.160583,272.954376 548.602844,275.318481 
	C554.185730,284.469666 560.077454,293.496979 564.817261,303.083099 
	C572.358398,318.334747 579.400879,333.856293 586.044922,349.522095 
	C593.763062,367.720337 598.436951,386.909546 601.837524,406.305695 
	C604.261902,420.133911 605.297729,434.205597 606.506958,448.692505 
	C605.707153,450.747345 605.073303,452.273773 605.048279,453.810150 
	C604.936951,460.638336 605.190430,467.476074 604.949890,474.297607 
	C604.672913,482.151215 603.984680,489.990021 603.623230,497.842041 
	C603.607239,498.189209 605.063477,498.604095 605.833923,498.987427 
	C607.861389,506.855530 601.242676,509.391785 596.716492,512.418457 
	C587.300720,518.714783 577.608887,524.746277 567.492737,529.813232 
	C551.178528,537.984497 534.457458,545.349121 517.839966,552.904358 
	C514.754822,554.307068 511.107941,554.551453 508.145508,556.128845 
	C503.645691,558.524963 500.614075,557.974304 497.961090,553.495422 
	C492.024902,543.473572 485.864563,533.584473 479.652283,523.406738 
	C486.856628,520.059570 493.396881,517.117126 499.846893,513.988586 
	C503.814880,512.064026 507.686127,509.927460 511.521332,507.746368 
	C513.789612,506.456451 514.087708,505.140503 511.981812,502.908142 
	C507.982971,498.669128 504.226837,498.492767 498.948761,500.924011 
	C478.885468,510.165802 457.808624,516.233704 435.865784,518.963806 
	C425.271851,520.281921 414.617523,521.647705 403.967224,521.868530 
	C382.026550,522.323486 360.329590,519.595520 339.251801,513.472351 
	C325.860779,509.582184 312.786530,504.577271 299.647125,499.858124 
	C294.697113,498.080231 291.307556,499.715271 287.752747,507.015778 
	C298.954834,512.391663 310.154022,517.766113 321.936401,523.420471 
	C317.804565,530.586243 313.766418,537.921265 309.389435,545.048218 
	C307.002045,548.935547 304.180023,552.587830 301.238617,556.080566 
	C300.509399,556.946472 298.331085,557.399475 297.196075,556.991821 
	C285.200775,552.684021 273.086914,548.614929 261.399536,543.568054 
	C250.806046,538.993591 240.538971,533.581116 230.432785,527.987427 
	C222.911346,523.824341 215.885391,518.768066 208.618347,514.141724 
	C207.128418,513.193176 205.626984,512.182861 203.995407,511.550446 
	C196.691437,508.719177 195.654922,502.416290 195.500381,495.302338 
	C196.282257,494.091522 196.935516,493.400879 196.938812,492.707153 
	C197.003387,479.134949 197.030685,465.562073 196.917969,451.990540 
	C196.909653,450.991028 195.780121,450.000824 195.171844,449.006287 
	C196.183945,438.214691 196.420456,427.278992 198.392548,416.665771 
	C201.248550,401.295471 204.753296,385.982117 209.116608,370.974518 
	C213.020020,357.548676 217.862595,344.312378 223.391800,331.466339 
	C228.859268,318.763702 235.428314,306.503876 242.042313,294.336945 
	C246.542389,286.058716 251.364853,277.805298 257.221649,270.483490 
	C259.847076,267.201355 265.252686,265.956238 269.583435,264.265076 
	C277.895752,261.019043 286.204865,257.639465 294.763428,255.178268 
	C307.893188,251.402557 321.229248,248.342285 334.486481,245.013306 
	C336.837128,244.423050 339.230469,244.002747 342.360229,243.345108 
	C344.937683,248.340103 347.769928,253.465988 350.262085,258.752197 
	C353.252777,265.095856 354.984070,265.929779 361.880310,264.997345 
	C368.878937,264.051117 375.949707,263.638031 383.921143,262.987244 
	C395.932983,262.968872 407.012512,262.954742 418.092072,262.940613 
M432.020844,415.615875 
	C432.412109,419.873291 432.070557,424.363586 433.335205,428.343506 
	C436.810974,439.282166 443.043457,448.379364 453.066650,454.579010 
	C464.228973,461.483246 482.384705,459.734741 492.273895,451.338470 
	C507.035889,438.805023 511.498688,416.901764 504.847748,399.873291 
	C498.800323,384.390106 487.622437,374.551208 470.460693,374.159058 
	C456.185150,373.832794 445.091095,380.911224 438.549072,393.389435 
	C435.161102,399.851562 434.174408,407.572571 432.020844,415.615875 
M294.994781,411.686707 
	C294.994812,414.519806 294.928070,417.354736 295.006012,420.185699 
	C295.401245,434.541656 301.779419,446.290955 313.619202,453.542450 
	C331.774292,464.661865 351.636871,458.967194 363.146973,441.188477 
	C374.486389,423.673431 372.515503,397.251831 355.289551,382.782074 
	C348.232208,376.853912 339.917297,373.643616 330.856873,374.184998 
	C322.012054,374.713501 314.042328,377.828857 307.449860,384.641357 
	C300.229340,392.102844 295.840424,400.463226 294.994781,411.686707 
z"/>
<path fill="#5D5FFE" opacity="1.000000" stroke="none" 
	d="
M606.039246,498.613708 
	C605.063477,498.604095 603.607239,498.189209 603.623230,497.842041 
	C603.984680,489.990021 604.672913,482.151215 604.949890,474.297607 
	C605.190430,467.476074 604.936951,460.638336 605.048279,453.810150 
	C605.073303,452.273773 605.707153,450.747345 606.442688,449.109497 
	C606.888611,451.021729 606.952698,453.040771 607.016724,455.963776 
	C607.037598,465.270447 607.058533,473.673126 607.079468,482.075836 
	C606.801208,487.463898 606.522888,492.851959 606.039246,498.613708 
z"/>
<path fill="#5D5FFE" opacity="1.000000" stroke="none" 
	d="
M195.103699,449.434387 
	C195.780121,450.000824 196.909653,450.991028 196.917969,451.990540 
	C197.030685,465.562073 197.003387,479.134949 196.938812,492.707153 
	C196.935516,493.400879 196.282257,494.091522 195.549561,494.890289 
	C195.106598,490.997162 195.045715,486.997314 194.981750,482.067749 
	C194.960495,472.733429 194.942337,464.328857 194.924179,455.924286 
	C194.961304,453.903687 194.998413,451.883087 195.103699,449.434387 
z"/>
<path fill="#5F68C3" opacity="1.000000" stroke="none" 
	d="
M417.839661,262.587769 
	C407.012512,262.954742 395.932983,262.968872 384.379120,262.961761 
	C385.092560,262.627289 386.280426,262.043121 387.468079,262.043518 
	C397.507782,262.046906 407.547516,262.156952 417.839661,262.587769 
z"/>
<path fill="#5F6BBD" opacity="1.000000" stroke="none" 
	d="
M194.576096,456.179047 
	C194.942337,464.328857 194.960495,472.733429 194.951050,481.610657 
	C194.617020,477.949524 194.154297,473.819794 194.046753,469.680878 
	C193.932144,465.269745 194.153397,460.849854 194.576096,456.179047 
z"/>
<path fill="#5F6BBD" opacity="1.000000" stroke="none" 
	d="
M607.426392,481.820068 
	C607.058533,473.673126 607.037598,465.270447 607.046509,456.395752 
	C607.384949,460.056610 607.851379,464.185333 607.959167,468.323395 
	C608.074036,472.732422 607.849670,477.150269 607.426392,481.820068 
z"/>
<path fill="#FFFFFF" opacity="1.000000" stroke="none" 
	d="
M432.061829,415.170349 
	C434.174408,407.572571 435.161102,399.851562 438.549072,393.389435 
	C445.091095,380.911224 456.185150,373.832794 470.460693,374.159058 
	C487.622437,374.551208 498.800323,384.390106 504.847748,399.873291 
	C511.498688,416.901764 507.035889,438.805023 492.273895,451.338470 
	C482.384705,459.734741 464.228973,461.483246 453.066650,454.579010 
	C443.043457,448.379364 436.810974,439.282166 433.335205,428.343506 
	C432.070557,424.363586 432.412109,419.873291 432.061829,415.170349 
z"/>
<path fill="#FFFFFF" opacity="1.000000" stroke="none" 
	d="
M294.994781,411.215851 
	C295.840424,400.463226 300.229340,392.102844 307.449860,384.641357 
	C314.042328,377.828857 322.012054,374.713501 330.856873,374.184998 
	C339.917297,373.643616 348.232208,376.853912 355.289551,382.782074 
	C372.515503,397.251831 374.486389,423.673431 363.146973,441.188477 
	C351.636871,458.967194 331.774292,464.661865 313.619202,453.542450 
	C301.779419,446.290955 295.401245,434.541656 295.006012,420.185699 
	C294.928070,417.354736 294.994812,414.519806 294.994781,411.215851 
z"/>
</svg>