<svg style="backgorund-color:#000;" version="1.1" id="Layer_1" xmlns="http://www.w3.org/2000/svg" xmlns:xlink="http://www.w3.org/1999/xlink" x="0px" y="0px"
	 width="100%" viewBox="0 0 2048 2048" enable-background="new 0 0 2048 2048" xml:space="preserve">
<path fill="#222" opacity="0.000000" stroke="none" 
	d="
M887.000000,2049.000000 
	C591.333313,2049.000000 296.166656,2049.000000 1.000000,2049.000000 
	C1.000000,1366.333374 1.000000,683.666687 1.000000,1.000000 
	C683.666687,1.000000 1366.333374,1.000000 2049.000000,1.000000 
	C2049.000000,683.666687 2049.000000,1366.333374 2049.000000,2049.000000 
	C1661.833374,2049.000000 1274.666626,2049.000000 887.000000,2049.000000 
M1151.198975,666.688721 
	C1150.252563,672.252930 1146.818115,673.103333 1141.871582,672.042236 
	C1137.329712,671.067932 1132.679077,670.487732 1128.046021,670.072021 
	C1108.161743,668.287781 1088.289307,665.601746 1068.369751,665.157471 
	C1036.264160,664.441467 1004.095947,664.461914 972.010193,665.664612 
	C951.281677,666.441711 930.640259,669.775208 909.989868,672.217712 
	C905.572388,672.740173 903.697205,671.226074 901.835754,667.299622 
	C894.072815,650.924255 885.818909,634.782166 877.823547,618.515991 
	C876.397949,615.615540 874.489990,614.913574 871.361023,615.582092 
	C864.702698,617.004578 857.939453,617.929565 851.264343,619.281128 
	C787.479004,632.196655 725.894714,651.986938 666.318115,678.176636 
	C658.538513,681.596436 652.382324,685.997681 648.303162,693.561829 
	C645.150696,699.407593 641.254761,704.850891 637.720154,710.492371 
	C592.990601,781.885376 556.957703,857.299683 531.870544,937.865662 
	C512.605164,999.735107 500.539276,1062.956787 495.241821,1127.480469 
	C492.350189,1162.700684 491.187683,1197.998901 492.855042,1233.328613 
	C493.780945,1252.947754 494.986816,1272.557617 496.444122,1292.143555 
	C496.648315,1294.887695 498.324219,1298.410278 500.479095,1299.993042 
	C580.232483,1358.571167 666.989136,1403.448730 761.536316,1433.060303 
	C765.818848,1434.401367 768.129517,1433.649170 770.697937,1430.076416 
	C789.378052,1404.092163 806.055786,1376.897339 820.773865,1348.488892 
	C824.965393,1340.398560 824.850342,1340.014526 816.452637,1336.720215 
	C816.142395,1336.598633 815.833923,1336.472656 815.523071,1336.353027 
	C789.382629,1326.279785 764.415344,1313.775269 740.113037,1299.903198 
	C735.437500,1297.234253 735.358704,1295.079346 739.618286,1291.767334 
	C742.771057,1289.316040 746.366638,1287.271118 749.005066,1284.357056 
	C753.817749,1279.041992 758.428101,1279.695312 764.462891,1282.416138 
	C809.175964,1302.575439 855.518555,1317.812500 903.654724,1327.451538 
	C940.448853,1334.819214 977.589111,1339.106445 1015.116516,1339.760498 
	C1046.962524,1340.315430 1078.662964,1338.416016 1110.233643,1334.052002 
	C1141.242798,1329.765747 1171.740234,1323.180786 1201.796631,1314.506958 
	C1232.529785,1305.637939 1262.361206,1294.328369 1291.386597,1280.907959 
	C1294.862671,1279.300781 1297.640015,1279.497681 1300.535278,1281.953613 
	C1304.340210,1285.181274 1308.322876,1288.198853 1312.198120,1291.344727 
	C1317.203369,1295.408203 1317.017334,1297.062622 1311.400757,1300.355225 
	C1286.522827,1314.939453 1260.579590,1327.293701 1233.664673,1337.630615 
	C1228.316772,1339.684570 1227.767456,1340.997681 1230.206421,1345.716064 
	C1245.508667,1375.320923 1262.818115,1403.696777 1282.154541,1430.846924 
	C1284.263916,1433.808960 1286.333740,1434.621948 1289.700195,1433.375122 
	C1318.379272,1422.753784 1347.513428,1413.229004 1375.699707,1401.436035 
	C1437.817871,1375.445923 1495.539673,1341.510498 1549.979248,1301.895264 
	C1554.626221,1298.513916 1556.548462,1294.834839 1556.725342,1289.604004 
	C1557.912842,1254.498169 1559.939819,1219.395020 1560.062378,1184.285400 
	C1560.211182,1141.629272 1555.856079,1099.248047 1549.068726,1057.094360 
	C1539.090942,995.126709 1522.699707,934.936646 1499.831421,876.537842 
	C1473.581299,809.502930 1439.695801,746.445129 1399.523193,686.747437 
	C1398.213623,684.801514 1396.131836,683.012695 1394.003662,682.032898 
	C1326.440063,650.924744 1255.966187,629.129456 1182.779907,615.907349 
	C1177.896240,615.025024 1175.731201,616.340881 1173.830688,620.266663 
	C1166.439575,635.532959 1158.950317,650.751709 1151.198975,666.688721 
z"/>
<path fill="#5865F2" opacity="1.000000" stroke="none" 
	d="
M1151.348389,666.338440 
	C1158.950317,650.751709 1166.439575,635.532959 1173.830688,620.266663 
	C1175.731201,616.340881 1177.896240,615.025024 1182.779907,615.907349 
	C1255.966187,629.129456 1326.440063,650.924744 1394.003662,682.032898 
	C1396.131836,683.012695 1398.213623,684.801514 1399.523193,686.747437 
	C1439.695801,746.445129 1473.581299,809.502930 1499.831421,876.537842 
	C1522.699707,934.936646 1539.090942,995.126709 1549.068726,1057.094360 
	C1555.856079,1099.248047 1560.211182,1141.629272 1560.062378,1184.285400 
	C1559.939819,1219.395020 1557.912842,1254.498169 1556.725342,1289.604004 
	C1556.548462,1294.834839 1554.626221,1298.513916 1549.979248,1301.895264 
	C1495.539673,1341.510498 1437.817871,1375.445923 1375.699707,1401.436035 
	C1347.513428,1413.229004 1318.379272,1422.753784 1289.700195,1433.375122 
	C1286.333740,1434.621948 1284.263916,1433.808960 1282.154541,1430.846924 
	C1262.818115,1403.696777 1245.508667,1375.320923 1230.206421,1345.716064 
	C1227.767456,1340.997681 1228.316772,1339.684570 1233.664673,1337.630615 
	C1260.579590,1327.293701 1286.522827,1314.939453 1311.400757,1300.355225 
	C1317.017334,1297.062622 1317.203369,1295.408203 1312.198120,1291.344727 
	C1308.322876,1288.198853 1304.340210,1285.181274 1300.535278,1281.953613 
	C1297.640015,1279.497681 1294.862671,1279.300781 1291.386597,1280.907959 
	C1262.361206,1294.328369 1232.529785,1305.637939 1201.796631,1314.506958 
	C1171.740234,1323.180786 1141.242798,1329.765747 1110.233643,1334.052002 
	C1078.662964,1338.416016 1046.962524,1340.315430 1015.116516,1339.760498 
	C977.589111,1339.106445 940.448853,1334.819214 903.654724,1327.451538 
	C855.518555,1317.812500 809.175964,1302.575439 764.462891,1282.416138 
	C758.428101,1279.695312 753.817749,1279.041992 749.005066,1284.357056 
	C746.366638,1287.271118 742.771057,1289.316040 739.618286,1291.767334 
	C735.358704,1295.079346 735.437500,1297.234253 740.113037,1299.903198 
	C764.415344,1313.775269 789.382629,1326.279785 815.523071,1336.353027 
	C815.833923,1336.472656 816.142395,1336.598633 816.452637,1336.720215 
	C824.850342,1340.014526 824.965393,1340.398560 820.773865,1348.488892 
	C806.055786,1376.897339 789.378052,1404.092163 770.697937,1430.076416 
	C768.129517,1433.649170 765.818848,1434.401367 761.536316,1433.060303 
	C666.989136,1403.448730 580.232483,1358.571167 500.479095,1299.993042 
	C498.324219,1298.410278 496.648315,1294.887695 496.444122,1292.143555 
	C494.986816,1272.557617 493.780945,1252.947754 492.855042,1233.328613 
	C491.187683,1197.998901 492.350189,1162.700684 495.241821,1127.480469 
	C500.539276,1062.956787 512.605164,999.735107 531.870544,937.865662 
	C556.957703,857.299683 592.990601,781.885376 637.720154,710.492371 
	C641.254761,704.850891 645.150696,699.407593 648.303162,693.561829 
	C652.382324,685.997681 658.538513,681.596436 666.318115,678.176636 
	C725.894714,651.986938 787.479004,632.196655 851.264343,619.281128 
	C857.939453,617.929565 864.702698,617.004578 871.361023,615.582092 
	C874.489990,614.913574 876.397949,615.615540 877.823547,618.515991 
	C885.818909,634.782166 894.072815,650.924255 901.835754,667.299622 
	C903.697205,671.226074 905.572388,672.740173 909.989868,672.217712 
	C930.640259,669.775208 951.281677,666.441711 972.010193,665.664612 
	C1004.095947,664.461914 1036.264160,664.441467 1068.369751,665.157471 
	C1088.289307,665.601746 1108.161743,668.287781 1128.046021,670.072021 
	C1132.679077,670.487732 1137.329712,671.067932 1141.871582,672.042236 
	C1146.818115,673.103333 1150.252563,672.252930 1151.348389,666.338440 
M1287.089722,1120.537231 
	C1306.773560,1077.995605 1305.688843,1036.506958 1278.961548,997.350891 
	C1247.273926,950.927673 1185.058838,943.686401 1143.890991,981.200439 
	C1122.244507,1000.925598 1110.868896,1026.026611 1108.755371,1055.107910 
	C1106.117554,1091.402588 1116.520996,1123.239014 1143.088379,1148.829834 
	C1170.888794,1175.608276 1211.547241,1181.526123 1244.680664,1163.970703 
	C1263.188843,1154.164307 1276.899536,1139.556763 1287.089722,1120.537231 
M931.666443,1121.095337 
	C951.095459,1080.805054 950.599304,1040.979248 927.458496,1002.443665 
	C897.132996,951.943542 831.394897,942.063843 788.709534,981.374756 
	C767.057007,1001.315613 755.587646,1026.556030 753.765991,1055.844116 
	C751.299377,1095.502930 763.552856,1129.580566 795.201538,1154.742065 
	C819.189453,1173.813232 846.569641,1178.949951 876.064575,1169.431519 
	C901.124329,1161.344482 918.789429,1144.481201 931.666443,1121.095337 
z"/>
<path fill="#FFFFFF" opacity="1.000000" stroke="none" 
	d="
M1286.926636,1120.870605 
	C1276.899536,1139.556763 1263.188843,1154.164307 1244.680664,1163.970703 
	C1211.547241,1181.526123 1170.888794,1175.608276 1143.088379,1148.829834 
	C1116.520996,1123.239014 1106.117554,1091.402588 1108.755371,1055.107910 
	C1110.868896,1026.026611 1122.244507,1000.925598 1143.890991,981.200439 
	C1185.058838,943.686401 1247.273926,950.927673 1278.961548,997.350891 
	C1305.688843,1036.506958 1306.773560,1077.995605 1286.926636,1120.870605 
z"/>
<path fill="#FFFFFF" opacity="1.000000" stroke="none" 
	d="
M931.456665,1121.401611 
	C918.789429,1144.481201 901.124329,1161.344482 876.064575,1169.431519 
	C846.569641,1178.949951 819.189453,1173.813232 795.201538,1154.742065 
	C763.552856,1129.580566 751.299377,1095.502930 753.765991,1055.844116 
	C755.587646,1026.556030 767.057007,1001.315613 788.709534,981.374756 
	C831.394897,942.063843 897.132996,951.943542 927.458496,1002.443665 
	C950.599304,1040.979248 951.095459,1080.805054 931.456665,1121.401611 
z"/>
</svg>