<?xml version="1.0" encoding="UTF-8"?>
<svg version="1.1" xmlns="http://www.w3.org/2000/svg" width="2048" height="2048">
<path d="M0 0 C1.70269547 -0.0099852 1.70269547 -0.0099852 3.43978882 -0.02017212 C5.82458903 -0.03022023 8.20941692 -0.0349916 10.59423828 -0.03466797 C14.18180329 -0.0390271 17.76812148 -0.0753954 21.35546875 -0.11328125 C36.55418384 -0.18711116 51.37762188 0.38849467 65.5859375 6.3359375 C67.36858469 6.71455283 69.16154406 7.04720961 70.9609375 7.3359375 C76.842786 8.34923038 82.27711347 9.50456469 87.5859375 12.3359375 C89.24734513 13.01560426 90.91293791 13.68532655 92.5859375 14.3359375 C92.5859375 14.9959375 92.5859375 15.6559375 92.5859375 16.3359375 C94.2359375 16.3359375 95.8859375 16.3359375 97.5859375 16.3359375 C97.5859375 16.9959375 97.5859375 17.6559375 97.5859375 18.3359375 C98.9059375 18.3359375 100.2259375 18.3359375 101.5859375 18.3359375 C101.5859375 18.9959375 101.5859375 19.6559375 101.5859375 20.3359375 C102.9059375 20.3359375 104.2259375 20.3359375 105.5859375 20.3359375 C105.5859375 20.9959375 105.5859375 21.6559375 105.5859375 22.3359375 C106.9059375 22.3359375 108.2259375 22.3359375 109.5859375 22.3359375 C109.5859375 22.9959375 109.5859375 23.6559375 109.5859375 24.3359375 C110.1221875 24.4390625 110.6584375 24.5421875 111.2109375 24.6484375 C114.21095794 25.51686447 116.823891 26.89214046 119.5859375 28.3359375 C119.5859375 28.9959375 119.5859375 29.6559375 119.5859375 30.3359375 C121.5659375 30.6659375 123.5459375 30.9959375 125.5859375 31.3359375 C125.5859375 31.9959375 125.5859375 32.6559375 125.5859375 33.3359375 C126.5759375 33.3359375 127.5659375 33.3359375 128.5859375 33.3359375 C128.5859375 33.9959375 128.5859375 34.6559375 128.5859375 35.3359375 C129.2459375 35.3359375 129.9059375 35.3359375 130.5859375 35.3359375 C130.5859375 35.9959375 130.5859375 36.6559375 130.5859375 37.3359375 C131.5759375 37.3359375 132.5659375 37.3359375 133.5859375 37.3359375 C133.5859375 37.9959375 133.5859375 38.6559375 133.5859375 39.3359375 C136.0609375 40.3259375 136.0609375 40.3259375 138.5859375 41.3359375 C138.5859375 41.9959375 138.5859375 42.6559375 138.5859375 43.3359375 C139.5759375 43.3359375 140.5659375 43.3359375 141.5859375 43.3359375 C141.5859375 43.9959375 141.5859375 44.6559375 141.5859375 45.3359375 C142.2459375 45.3359375 142.9059375 45.3359375 143.5859375 45.3359375 C143.5859375 45.9959375 143.5859375 46.6559375 143.5859375 47.3359375 C144.2459375 47.3359375 144.9059375 47.3359375 145.5859375 47.3359375 C145.5859375 47.9959375 145.5859375 48.6559375 145.5859375 49.3359375 C146.2459375 49.3359375 146.9059375 49.3359375 147.5859375 49.3359375 C147.5859375 49.9959375 147.5859375 50.6559375 147.5859375 51.3359375 C148.2459375 51.3359375 148.9059375 51.3359375 149.5859375 51.3359375 C149.5859375 51.9959375 149.5859375 52.6559375 149.5859375 53.3359375 C150.3903125 53.67625 150.3903125 53.67625 151.2109375 54.0234375 C154.41053911 55.79163839 156.87630973 57.87263953 159.5859375 60.3359375 C159.5859375 60.9959375 159.5859375 61.6559375 159.5859375 62.3359375 C161.5659375 62.3359375 163.5459375 62.3359375 165.5859375 62.3359375 C165.5859375 61.6759375 165.5859375 61.0159375 165.5859375 60.3359375 C166.54306641 60.24505859 166.54306641 60.24505859 167.51953125 60.15234375 C168.34582031 60.06855469 169.17210937 59.98476563 170.0234375 59.8984375 C170.84714844 59.81722656 171.67085937 59.73601563 172.51953125 59.65234375 C174.57255775 59.54662935 174.57255775 59.54662935 175.5859375 58.3359375 C176.6171875 58.1915625 177.6484375 58.0471875 178.7109375 57.8984375 C182.57372479 57.43344631 182.57372479 57.43344631 186.1484375 56.2734375 C189.47783289 55.36542058 192.15804942 55.16872345 195.5859375 55.3359375 C195.5859375 54.6759375 195.5859375 54.0159375 195.5859375 53.3359375 C200.12295244 51.88409272 203.76655226 51.10084554 208.5859375 51.3359375 C208.5859375 50.6759375 208.5859375 50.0159375 208.5859375 49.3359375 C212.40914307 47.91334938 215.49875055 47.09551474 219.5859375 47.3359375 C219.5859375 46.6759375 219.5859375 46.0159375 219.5859375 45.3359375 C221.2359375 45.3359375 222.8859375 45.3359375 224.5859375 45.3359375 C224.5859375 44.6759375 224.5859375 44.0159375 224.5859375 43.3359375 C226.2359375 43.3359375 227.8859375 43.3359375 229.5859375 43.3359375 C229.5859375 42.6759375 229.5859375 42.0159375 229.5859375 41.3359375 C231.2359375 41.3359375 232.8859375 41.3359375 234.5859375 41.3359375 C234.5859375 40.6759375 234.5859375 40.0159375 234.5859375 39.3359375 C236.2359375 39.3359375 237.8859375 39.3359375 239.5859375 39.3359375 C239.5859375 38.6759375 239.5859375 38.0159375 239.5859375 37.3359375 C240.83485364 36.85395287 242.08512558 36.37548073 243.3359375 35.8984375 C244.03203125 35.63160156 244.728125 35.36476563 245.4453125 35.08984375 C247.47652753 34.37447057 249.4894666 33.82228098 251.5859375 33.3359375 C251.5859375 32.6759375 251.5859375 32.0159375 251.5859375 31.3359375 C252.3284375 31.2121875 253.0709375 31.0884375 253.8359375 30.9609375 C256.55166128 30.45838208 256.55166128 30.45838208 258.7109375 29.2734375 C260.5859375 28.3359375 260.5859375 28.3359375 263.5859375 28.3359375 C263.5859375 27.6759375 263.5859375 27.0159375 263.5859375 26.3359375 C264.9059375 26.3359375 266.2259375 26.3359375 267.5859375 26.3359375 C267.5859375 25.6759375 267.5859375 25.0159375 267.5859375 24.3359375 C270.23332666 22.875309 271.48042084 22.3359375 274.5859375 22.3359375 C274.5859375 21.6759375 274.5859375 21.0159375 274.5859375 20.3359375 C275.9059375 20.3359375 277.2259375 20.3359375 278.5859375 20.3359375 C278.5859375 19.6759375 278.5859375 19.0159375 278.5859375 18.3359375 C279.5759375 18.3359375 280.5659375 18.3359375 281.5859375 18.3359375 C281.5859375 17.6759375 281.5859375 17.0159375 281.5859375 16.3359375 C284.23332666 14.875309 285.48042084 14.3359375 288.5859375 14.3359375 C287.91927083 17.66927083 287.25260417 21.00260417 286.5859375 24.3359375 C285.9259375 24.3359375 285.2659375 24.3359375 284.5859375 24.3359375 C284.2559375 27.6359375 283.9259375 30.9359375 283.5859375 34.3359375 C282.9259375 34.3359375 282.2659375 34.3359375 281.5859375 34.3359375 C281.4828125 34.8515625 281.3796875 35.3671875 281.2734375 35.8984375 C280.34329884 39.19620185 278.97198238 42.20227082 277.5859375 45.3359375 C276.9259375 45.3359375 276.2659375 45.3359375 275.5859375 45.3359375 C275.5859375 46.6559375 275.5859375 47.9759375 275.5859375 49.3359375 C274.9259375 49.3359375 274.2659375 49.3359375 273.5859375 49.3359375 C273.5859375 50.6559375 273.5859375 51.9759375 273.5859375 53.3359375 C272.9259375 53.3359375 272.2659375 53.3359375 271.5859375 53.3359375 C271.4415625 53.9546875 271.2971875 54.5734375 271.1484375 55.2109375 C270.5859375 57.3359375 270.5859375 57.3359375 269.5859375 59.3359375 C268.9259375 59.3359375 268.2659375 59.3359375 267.5859375 59.3359375 C267.4415625 59.9546875 267.2971875 60.5734375 267.1484375 61.2109375 C266.5859375 63.3359375 266.5859375 63.3359375 265.5859375 65.3359375 C264.9259375 65.3359375 264.2659375 65.3359375 263.5859375 65.3359375 C263.4828125 65.8928125 263.3796875 66.4496875 263.2734375 67.0234375 C262.44415342 69.8128476 261.24294694 71.9498439 259.5859375 74.3359375 C258.9259375 74.3359375 258.2659375 74.3359375 257.5859375 74.3359375 C257.3178125 74.90828125 257.0496875 75.480625 256.7734375 76.0703125 C255.54461114 78.41478384 254.16071574 80.45998688 252.5859375 82.5859375 C252.0703125 83.29234375 251.5546875 83.99875 251.0234375 84.7265625 C250.311875 85.52320313 250.311875 85.52320313 249.5859375 86.3359375 C248.9259375 86.3359375 248.2659375 86.3359375 247.5859375 86.3359375 C247.3178125 86.9340625 247.0496875 87.5321875 246.7734375 88.1484375 C245.58676344 90.33441604 244.48994637 91.74926344 242.5859375 93.3359375 C241.9259375 93.3359375 241.2659375 93.3359375 240.5859375 93.3359375 C240.5859375 93.9959375 240.5859375 94.6559375 240.5859375 95.3359375 C239.9259375 95.3359375 239.2659375 95.3359375 238.5859375 95.3359375 C238.3384375 95.9546875 238.0909375 96.5734375 237.8359375 97.2109375 C236.37965111 99.68662437 235.20781244 100.28718752 232.5859375 101.3359375 C232.5859375 101.9959375 232.5859375 102.6559375 232.5859375 103.3359375 C231.9259375 103.3359375 231.2659375 103.3359375 230.5859375 103.3359375 C230.5446875 103.9546875 230.5034375 104.5734375 230.4609375 105.2109375 C230.1721875 105.9121875 229.8834375 106.6134375 229.5859375 107.3359375 C226.5234375 108.5859375 226.5234375 108.5859375 223.5859375 109.3359375 C223.5859375 109.9959375 223.5859375 110.6559375 223.5859375 111.3359375 C222.9259375 111.3359375 222.2659375 111.3359375 221.5859375 111.3359375 C221.5859375 111.9959375 221.5859375 112.6559375 221.5859375 113.3359375 C220.9259375 113.3359375 220.2659375 113.3359375 219.5859375 113.3359375 C219.5859375 113.9959375 219.5859375 114.6559375 219.5859375 115.3359375 C216.6159375 116.3259375 216.6159375 116.3259375 213.5859375 117.3359375 C213.5859375 117.9959375 213.5859375 118.6559375 213.5859375 119.3359375 C212.5959375 119.3359375 211.6059375 119.3359375 210.5859375 119.3359375 C210.5859375 119.9959375 210.5859375 120.6559375 210.5859375 121.3359375 C209.2659375 121.9959375 207.9459375 122.6559375 206.5859375 123.3359375 C207.3284375 123.1709375 208.0709375 123.0059375 208.8359375 122.8359375 C214.09003151 122.13539163 219.29345499 122.25886251 224.5859375 122.3359375 C224.5859375 121.6759375 224.5859375 121.0159375 224.5859375 120.3359375 C227.8859375 120.3359375 231.1859375 120.3359375 234.5859375 120.3359375 C234.5859375 119.6759375 234.5859375 119.0159375 234.5859375 118.3359375 C237.5559375 118.3359375 240.5259375 118.3359375 243.5859375 118.3359375 C243.5859375 117.6759375 243.5859375 117.0159375 243.5859375 116.3359375 C244.5965625 116.2121875 245.6071875 116.0884375 246.6484375 115.9609375 C250.46531362 115.35508415 253.90093862 114.46399838 257.5859375 113.3359375 C257.5859375 113.0059375 257.5859375 112.6759375 257.5859375 112.3359375 C260.5559375 111.8409375 260.5559375 111.8409375 263.5859375 111.3359375 C263.5859375 111.0059375 263.5859375 110.6759375 263.5859375 110.3359375 C264.44316406 110.22636719 265.30039063 110.11679687 266.18359375 110.00390625 C272.47037092 109.13212092 277.84353761 108.15296386 283.5859375 105.3359375 C285.2867164 104.58931982 286.99570674 103.86122796 288.7109375 103.1484375 C289.51789062 102.80425781 290.32484375 102.46007812 291.15625 102.10546875 C293.76373159 101.27962651 295.86798391 101.19568723 298.5859375 101.3359375 C298.5859375 100.6759375 298.5859375 100.0159375 298.5859375 99.3359375 C300.2359375 99.3359375 301.8859375 99.3359375 303.5859375 99.3359375 C303.5859375 98.6759375 303.5859375 98.0159375 303.5859375 97.3359375 C306.95691133 95.83772691 308.79035869 95.3359375 312.5859375 95.3359375 C312.5859375 94.6759375 312.5859375 94.0159375 312.5859375 93.3359375 C313.2459375 93.3359375 313.9059375 93.3359375 314.5859375 93.3359375 C314.11177172 98.31467814 312.6760044 101.40312508 309.5859375 105.3359375 C308.9259375 105.3359375 308.2659375 105.3359375 307.5859375 105.3359375 C307.5859375 105.9959375 307.5859375 106.6559375 307.5859375 107.3359375 C306.9259375 107.3359375 306.2659375 107.3359375 305.5859375 107.3359375 C305.48152344 107.89796875 305.37710938 108.46 305.26953125 109.0390625 C304.45980515 111.75974221 303.22390412 113.72851557 301.6484375 116.0859375 C300.86146484 117.28476562 300.86146484 117.28476562 300.05859375 118.5078125 C299.57261719 119.11109375 299.08664062 119.714375 298.5859375 120.3359375 C297.9259375 120.3359375 297.2659375 120.3359375 296.5859375 120.3359375 C295.9259375 121.9859375 295.2659375 123.6359375 294.5859375 125.3359375 C293.9259375 125.3359375 293.2659375 125.3359375 292.5859375 125.3359375 C292.2971875 125.9340625 292.0084375 126.5321875 291.7109375 127.1484375 C290.5859375 129.3359375 290.5859375 129.3359375 288.5859375 132.3359375 C287.9259375 132.3359375 287.2659375 132.3359375 286.5859375 132.3359375 C286.5859375 132.9959375 286.5859375 133.6559375 286.5859375 134.3359375 C285.9259375 134.3359375 285.2659375 134.3359375 284.5859375 134.3359375 C284.2559375 135.6559375 283.9259375 136.9759375 283.5859375 138.3359375 C282.9259375 138.3359375 282.2659375 138.3359375 281.5859375 138.3359375 C281.31789307 138.93067871 281.04984863 139.52541992 280.77368164 140.13818359 C279.57614051 142.35406546 278.38274767 143.75673278 276.58203125 145.5 C275.71868164 146.34691406 275.71868164 146.34691406 274.83789062 147.2109375 C274.23912109 147.7884375 273.64035156 148.3659375 273.0234375 148.9609375 C271.83244366 150.11753901 270.64353745 151.27629528 269.45703125 152.4375 C268.93036865 152.94619629 268.40370605 153.45489258 267.86108398 153.97900391 C266.4695158 155.32993855 266.4695158 155.32993855 265.5859375 157.3359375 C264.9259375 157.3359375 264.2659375 157.3359375 263.5859375 157.3359375 C263.5859375 157.9959375 263.5859375 158.6559375 263.5859375 159.3359375 C262.9259375 159.3359375 262.2659375 159.3359375 261.5859375 159.3359375 C261.5859375 159.9959375 261.5859375 160.6559375 261.5859375 161.3359375 C260.9259375 161.3359375 260.2659375 161.3359375 259.5859375 161.3359375 C259.5859375 161.9959375 259.5859375 162.6559375 259.5859375 163.3359375 C258.9259375 163.3359375 258.2659375 163.3359375 257.5859375 163.3359375 C257.5859375 163.9959375 257.5859375 164.6559375 257.5859375 165.3359375 C256.125 166.84375 256.125 166.84375 254.2109375 168.4609375 C253.27121094 169.26917969 253.27121094 169.26917969 252.3125 170.09375 C250.5859375 171.3359375 250.5859375 171.3359375 248.5859375 171.3359375 C248.5859375 171.9959375 248.5859375 172.6559375 248.5859375 173.3359375 C247.2659375 173.6659375 245.9459375 173.9959375 244.5859375 174.3359375 C244.5859375 174.9959375 244.5859375 175.6559375 244.5859375 176.3359375 C243.9259375 176.3359375 243.2659375 176.3359375 242.5859375 176.3359375 C242.5859375 176.9959375 242.5859375 177.6559375 242.5859375 178.3359375 C241.9259375 178.3359375 241.2659375 178.3359375 240.5859375 178.3359375 C240.5859375 178.9959375 240.5859375 179.6559375 240.5859375 180.3359375 C239.9259375 180.3359375 239.2659375 180.3359375 238.5859375 180.3359375 C238.5859375 180.9959375 238.5859375 181.6559375 238.5859375 182.3359375 C237.5959375 182.3359375 236.6059375 182.3359375 235.5859375 182.3359375 C235.5859375 182.9959375 235.5859375 183.6559375 235.5859375 184.3359375 C234.5959375 184.3359375 233.6059375 184.3359375 232.5859375 184.3359375 C232.5859375 184.9959375 232.5859375 185.6559375 232.5859375 186.3359375 C231.9259375 186.3359375 231.2659375 186.3359375 230.5859375 186.3359375 C230.5859375 186.9959375 230.5859375 187.6559375 230.5859375 188.3359375 C229.9259375 188.3359375 229.2659375 188.3359375 228.5859375 188.3359375 C228.5859375 188.9959375 228.5859375 189.6559375 228.5859375 190.3359375 C227.9259375 190.3359375 227.2659375 190.3359375 226.5859375 190.3359375 C226.5859375 190.9959375 226.5859375 191.6559375 226.5859375 192.3359375 C225.5959375 192.3359375 224.6059375 192.3359375 223.5859375 192.3359375 C223.5859375 192.9959375 223.5859375 193.6559375 223.5859375 194.3359375 C220.94701574 196.11899274 218.61414887 197.32653371 215.5859375 198.3359375 C215.58815811 199.16865677 215.59037872 200.00137604 215.59266663 200.85932922 C215.61269322 208.70209801 215.62792375 216.54485821 215.63774967 224.38764668 C215.64297106 228.41981915 215.65005524 232.45197053 215.66137695 236.48413086 C215.67223222 240.37445979 215.67821995 244.26476841 215.68081474 248.15511131 C215.68266422 249.6402843 215.68627571 251.12545615 215.69166756 252.6106205 C215.69891299 254.6887618 215.69992696 256.76681883 215.69946289 258.8449707 C215.7016835 260.02855667 215.70390411 261.21214264 215.70619202 262.43159485 C215.5859375 265.3359375 215.5859375 265.3359375 214.5859375 268.3359375 C214.40289411 270.90145038 214.26112053 273.45489366 214.1484375 276.0234375 C213.50522747 288.30612378 211.96382129 300.20664306 209.2421875 312.22265625 C208.54052914 315.55135693 208.13842697 318.81635984 207.83203125 322.19921875 C207.55580592 324.59755618 207.08747149 326.91220084 206.5859375 329.2734375 C205.53511035 334.26878744 204.99698286 339.25195546 204.5859375 344.3359375 C204.2559375 344.3359375 203.9259375 344.3359375 203.5859375 344.3359375 C203.4415625 345.4703125 203.2971875 346.6046875 203.1484375 347.7734375 C202.5859375 351.3359375 202.5859375 351.3359375 201.5859375 352.3359375 C201.21833019 354.66411714 200.88352169 356.997776 200.5859375 359.3359375 C199.9259375 359.3359375 199.2659375 359.3359375 198.5859375 359.3359375 C198.616875 361.0375 198.616875 361.0375 198.6484375 362.7734375 C198.5859375 366.3359375 198.5859375 366.3359375 197.5859375 367.3359375 C197.4209375 368.4909375 197.2559375 369.6459375 197.0859375 370.8359375 C196.5859375 374.3359375 196.5859375 374.3359375 195.5859375 375.3359375 C195.21833019 377.66411714 194.88352169 379.997776 194.5859375 382.3359375 C194.2559375 382.3359375 193.9259375 382.3359375 193.5859375 382.3359375 C193.2559375 384.3159375 192.9259375 386.2959375 192.5859375 388.3359375 C191.9259375 388.3359375 191.2659375 388.3359375 190.5859375 388.3359375 C190.5859375 390.3159375 190.5859375 392.2959375 190.5859375 394.3359375 C189.9259375 394.3359375 189.2659375 394.3359375 188.5859375 394.3359375 C188.67875 395.6353125 188.67875 395.6353125 188.7734375 396.9609375 C188.55550853 400.88365901 187.36470297 402.84428675 185.5859375 406.3359375 C184.46901708 409.97347563 183.51180727 413.64559133 182.5859375 417.3359375 C181.9259375 417.3359375 181.2659375 417.3359375 180.5859375 417.3359375 C180.79089844 418.05136719 180.99585938 418.76679687 181.20703125 419.50390625 C181.65936726 422.88476818 181.0106862 424.55241773 179.6484375 427.6484375 C179.07802734 428.97294922 179.07802734 428.97294922 178.49609375 430.32421875 C178.19574219 430.98808594 177.89539062 431.65195313 177.5859375 432.3359375 C176.9259375 432.3359375 176.2659375 432.3359375 175.5859375 432.3359375 C175.5859375 434.3159375 175.5859375 436.2959375 175.5859375 438.3359375 C174.9259375 438.3359375 174.2659375 438.3359375 173.5859375 438.3359375 C173.5859375 439.6559375 173.5859375 440.9759375 173.5859375 442.3359375 C172.9259375 442.3359375 172.2659375 442.3359375 171.5859375 442.3359375 C171.5859375 444.3159375 171.5859375 446.2959375 171.5859375 448.3359375 C170.9259375 448.3359375 170.2659375 448.3359375 169.5859375 448.3359375 C169.5859375 449.3259375 169.5859375 450.3159375 169.5859375 451.3359375 C168.9259375 451.3359375 168.2659375 451.3359375 167.5859375 451.3359375 C167.5859375 452.9859375 167.5859375 454.6359375 167.5859375 456.3359375 C166.9259375 456.3359375 166.2659375 456.3359375 165.5859375 456.3359375 C165.5859375 457.9859375 165.5859375 459.6359375 165.5859375 461.3359375 C164.9259375 461.3359375 164.2659375 461.3359375 163.5859375 461.3359375 C163.5859375 462.6559375 163.5859375 463.9759375 163.5859375 465.3359375 C162.9259375 465.3359375 162.2659375 465.3359375 161.5859375 465.3359375 C161.5859375 466.6559375 161.5859375 467.9759375 161.5859375 469.3359375 C160.9259375 469.3359375 160.2659375 469.3359375 159.5859375 469.3359375 C159.5859375 470.6559375 159.5859375 471.9759375 159.5859375 473.3359375 C158.9259375 473.3359375 158.2659375 473.3359375 157.5859375 473.3359375 C157.5240625 474.1403125 157.4621875 474.9446875 157.3984375 475.7734375 C156.48016017 479.7997304 154.85969735 482.67883542 152.7421875 486.1875 C151.62956385 488.25487502 151.04224282 490.04404034 150.5859375 492.3359375 C149.9259375 492.3359375 149.2659375 492.3359375 148.5859375 492.3359375 C148.5859375 493.6559375 148.5859375 494.9759375 148.5859375 496.3359375 C147.9259375 496.3359375 147.2659375 496.3359375 146.5859375 496.3359375 C146.4828125 496.8515625 146.3796875 497.3671875 146.2734375 497.8984375 C145.34329884 501.19620185 143.97198238 504.20227082 142.5859375 507.3359375 C141.9259375 507.3359375 141.2659375 507.3359375 140.5859375 507.3359375 C140.5859375 508.3259375 140.5859375 509.3159375 140.5859375 510.3359375 C139.9259375 510.3359375 139.2659375 510.3359375 138.5859375 510.3359375 C138.5859375 511.3259375 138.5859375 512.3159375 138.5859375 513.3359375 C137.9259375 513.3359375 137.2659375 513.3359375 136.5859375 513.3359375 C136.5859375 514.6559375 136.5859375 515.9759375 136.5859375 517.3359375 C135.9259375 517.3359375 135.2659375 517.3359375 134.5859375 517.3359375 C134.5859375 518.6559375 134.5859375 519.9759375 134.5859375 521.3359375 C133.9259375 521.3359375 133.2659375 521.3359375 132.5859375 521.3359375 C132.2971875 522.0784375 132.0084375 522.8209375 131.7109375 523.5859375 C130.76291106 525.90333547 129.73747839 528.11510865 128.5859375 530.3359375 C127.9259375 530.3359375 127.2659375 530.3359375 126.5859375 530.3359375 C125.5959375 533.3059375 124.6059375 536.2759375 123.5859375 539.3359375 C122.9259375 539.3359375 122.2659375 539.3359375 121.5859375 539.3359375 C121.5859375 540.3259375 121.5859375 541.3159375 121.5859375 542.3359375 C120.9259375 542.3359375 120.2659375 542.3359375 119.5859375 542.3359375 C119.5859375 543.3259375 119.5859375 544.3159375 119.5859375 545.3359375 C118.9259375 545.3359375 118.2659375 545.3359375 117.5859375 545.3359375 C117.3590625 546.3878125 117.1321875 547.4396875 116.8984375 548.5234375 C115.75976403 552.53705959 113.68336499 554.53350311 110.5859375 557.3359375 C108.23233352 560.08180881 106.73170363 561.89863911 105.5859375 565.3359375 C104.9259375 565.3359375 104.2659375 565.3359375 103.5859375 565.3359375 C103.5859375 565.9959375 103.5859375 566.6559375 103.5859375 567.3359375 C102.9259375 567.3359375 102.2659375 567.3359375 101.5859375 567.3359375 C101.2559375 568.9859375 100.9259375 570.6359375 100.5859375 572.3359375 C99.5959375 572.6659375 98.6059375 572.9959375 97.5859375 573.3359375 C96.87346018 574.9835413 96.21193367 576.65357279 95.5859375 578.3359375 C94.0859375 580.6484375 94.0859375 580.6484375 92.5859375 582.3359375 C91.9259375 582.3359375 91.2659375 582.3359375 90.5859375 582.3359375 C90.3384375 583.0578125 90.0909375 583.7796875 89.8359375 584.5234375 C88.46324158 587.61200332 86.86240454 589.84605168 84.5859375 592.3359375 C83.9259375 592.3359375 83.2659375 592.3359375 82.5859375 592.3359375 C82.5859375 592.9959375 82.5859375 593.6559375 82.5859375 594.3359375 C81.9259375 594.3359375 81.2659375 594.3359375 80.5859375 594.3359375 C80.4415625 594.9546875 80.2971875 595.5734375 80.1484375 596.2109375 C79.5859375 598.3359375 79.5859375 598.3359375 78.5859375 600.3359375 C77.9259375 600.3359375 77.2659375 600.3359375 76.5859375 600.3359375 C76.5859375 600.9959375 76.5859375 601.6559375 76.5859375 602.3359375 C75.9259375 602.3359375 75.2659375 602.3359375 74.5859375 602.3359375 C74.5859375 602.9959375 74.5859375 603.6559375 74.5859375 604.3359375 C73.27300136 605.68936066 71.93574436 607.01928379 70.5859375 608.3359375 C68.73480148 610.69476905 66.9533974 613.09614462 65.171875 615.5078125 C64.64851563 616.11109375 64.12515625 616.714375 63.5859375 617.3359375 C62.9259375 617.3359375 62.2659375 617.3359375 61.5859375 617.3359375 C61.5859375 617.9959375 61.5859375 618.6559375 61.5859375 619.3359375 C60.9259375 619.3359375 60.2659375 619.3359375 59.5859375 619.3359375 C59.5859375 619.9959375 59.5859375 620.6559375 59.5859375 621.3359375 C58.9259375 621.3359375 58.2659375 621.3359375 57.5859375 621.3359375 C57.5859375 621.9959375 57.5859375 622.6559375 57.5859375 623.3359375 C56.9259375 623.3359375 56.2659375 623.3359375 55.5859375 623.3359375 C55.5859375 623.9959375 55.5859375 624.6559375 55.5859375 625.3359375 C54.9259375 625.3359375 54.2659375 625.3359375 53.5859375 625.3359375 C53.5859375 625.9959375 53.5859375 626.6559375 53.5859375 627.3359375 C52.1953125 628.66796875 52.1953125 628.66796875 50.3359375 630.1484375 C47.31825459 632.62964345 45.01797926 635.2733664 42.5859375 638.3359375 C41.9259375 638.3359375 41.2659375 638.3359375 40.5859375 638.3359375 C40.5859375 638.9959375 40.5859375 639.6559375 40.5859375 640.3359375 C39.9259375 640.3359375 39.2659375 640.3359375 38.5859375 640.3359375 C38.5859375 640.9959375 38.5859375 641.6559375 38.5859375 642.3359375 C37.9259375 642.3359375 37.2659375 642.3359375 36.5859375 642.3359375 C36.5859375 642.9959375 36.5859375 643.6559375 36.5859375 644.3359375 C35.9259375 644.3359375 35.2659375 644.3359375 34.5859375 644.3359375 C34.5859375 644.9959375 34.5859375 645.6559375 34.5859375 646.3359375 C33.9259375 646.3359375 33.2659375 646.3359375 32.5859375 646.3359375 C32.5859375 646.9959375 32.5859375 647.6559375 32.5859375 648.3359375 C31.9259375 648.3359375 31.2659375 648.3359375 30.5859375 648.3359375 C30.5859375 648.9959375 30.5859375 649.6559375 30.5859375 650.3359375 C29.9259375 650.3359375 29.2659375 650.3359375 28.5859375 650.3359375 C28.5859375 650.9959375 28.5859375 651.6559375 28.5859375 652.3359375 C27.9259375 652.3359375 27.2659375 652.3359375 26.5859375 652.3359375 C26.5859375 652.9959375 26.5859375 653.6559375 26.5859375 654.3359375 C22.11534926 658.3359375 22.11534926 658.3359375 19.5859375 658.3359375 C19.5859375 658.9959375 19.5859375 659.6559375 19.5859375 660.3359375 C18.9259375 660.3359375 18.2659375 660.3359375 17.5859375 660.3359375 C17.2559375 660.9959375 16.9259375 661.6559375 16.5859375 662.3359375 C15.5959375 662.6659375 14.6059375 662.9959375 13.5859375 663.3359375 C13.5859375 663.9959375 13.5859375 664.6559375 13.5859375 665.3359375 C9.11534926 669.3359375 9.11534926 669.3359375 6.5859375 669.3359375 C6.5859375 669.9959375 6.5859375 670.6559375 6.5859375 671.3359375 C5.5959375 671.3359375 4.6059375 671.3359375 3.5859375 671.3359375 C3.5859375 671.9959375 3.5859375 672.6559375 3.5859375 673.3359375 C2.9259375 673.3359375 2.2659375 673.3359375 1.5859375 673.3359375 C1.5859375 673.9959375 1.5859375 674.6559375 1.5859375 675.3359375 C0.9259375 675.3359375 0.2659375 675.3359375 -0.4140625 675.3359375 C-0.4140625 675.9959375 -0.4140625 676.6559375 -0.4140625 677.3359375 C-1.4040625 677.3359375 -2.3940625 677.3359375 -3.4140625 677.3359375 C-3.4140625 677.9959375 -3.4140625 678.6559375 -3.4140625 679.3359375 C-6.28447232 682.75834921 -9.33967043 684.56446269 -13.4140625 686.3359375 C-14.0740625 686.3359375 -14.7340625 686.3359375 -15.4140625 686.3359375 C-15.4140625 686.9959375 -15.4140625 687.6559375 -15.4140625 688.3359375 C-20.82582721 692.3359375 -20.82582721 692.3359375 -23.4140625 692.3359375 C-23.4140625 692.9959375 -23.4140625 693.6559375 -23.4140625 694.3359375 C-26.4140625 696.3359375 -26.4140625 696.3359375 -29.4140625 696.3359375 C-29.4140625 696.9959375 -29.4140625 697.6559375 -29.4140625 698.3359375 C-34.82582721 702.3359375 -34.82582721 702.3359375 -37.4140625 702.3359375 C-37.4140625 702.9959375 -37.4140625 703.6559375 -37.4140625 704.3359375 C-38.4040625 704.3359375 -39.3940625 704.3359375 -40.4140625 704.3359375 C-40.4140625 704.9959375 -40.4140625 705.6559375 -40.4140625 706.3359375 C-41.27644531 706.74457031 -42.13882813 707.15320312 -43.02734375 707.57421875 C-47.52503667 709.91384909 -51.55541144 712.79310563 -55.70703125 715.69140625 C-58.4140625 717.3359375 -58.4140625 717.3359375 -61.4140625 717.3359375 C-61.4140625 717.9959375 -61.4140625 718.6559375 -61.4140625 719.3359375 C-62.7340625 719.3359375 -64.0540625 719.3359375 -65.4140625 719.3359375 C-65.4140625 719.9959375 -65.4140625 720.6559375 -65.4140625 721.3359375 C-66.4040625 721.3359375 -67.3940625 721.3359375 -68.4140625 721.3359375 C-68.4140625 721.9959375 -68.4140625 722.6559375 -68.4140625 723.3359375 C-69.4040625 723.3359375 -70.3940625 723.3359375 -71.4140625 723.3359375 C-71.4140625 723.9959375 -71.4140625 724.6559375 -71.4140625 725.3359375 C-72.7340625 725.3359375 -74.0540625 725.3359375 -75.4140625 725.3359375 C-75.4140625 725.9959375 -75.4140625 726.6559375 -75.4140625 727.3359375 C-78.06145166 728.796566 -79.30854584 729.3359375 -82.4140625 729.3359375 C-82.4140625 729.9959375 -82.4140625 730.6559375 -82.4140625 731.3359375 C-83.7340625 731.3359375 -85.0540625 731.3359375 -86.4140625 731.3359375 C-86.4140625 731.9959375 -86.4140625 732.6559375 -86.4140625 733.3359375 C-87.7340625 733.3359375 -89.0540625 733.3359375 -90.4140625 733.3359375 C-90.4140625 733.9959375 -90.4140625 734.6559375 -90.4140625 735.3359375 C-91.16171875 735.67367187 -91.909375 736.01140625 -92.6796875 736.359375 C-94.15695312 737.02839844 -94.15695312 737.02839844 -95.6640625 737.7109375 C-96.63859375 738.15179687 -97.613125 738.59265625 -98.6171875 739.046875 C-100.27775417 739.81221997 -101.92257273 740.61655981 -103.5234375 741.5 C-105.4140625 742.3359375 -105.4140625 742.3359375 -109.4140625 742.3359375 C-109.4140625 742.9959375 -109.4140625 743.6559375 -109.4140625 744.3359375 C-112.32006511 745.59258728 -114.21010834 746.3359375 -117.4140625 746.3359375 C-117.4140625 746.9959375 -117.4140625 747.6559375 -117.4140625 748.3359375 C-120.78503633 749.83414809 -122.61848369 750.3359375 -126.4140625 750.3359375 C-126.4140625 750.9959375 -126.4140625 751.6559375 -126.4140625 752.3359375 C-128.0640625 752.3359375 -129.7140625 752.3359375 -131.4140625 752.3359375 C-131.4140625 752.9959375 -131.4140625 753.6559375 -131.4140625 754.3359375 C-133.0640625 754.3359375 -134.7140625 754.3359375 -136.4140625 754.3359375 C-136.4140625 754.9959375 -136.4140625 755.6559375 -136.4140625 756.3359375 C-138.0640625 756.3359375 -139.7140625 756.3359375 -141.4140625 756.3359375 C-141.4140625 756.9959375 -141.4140625 757.6559375 -141.4140625 758.3359375 C-143.0640625 758.3359375 -144.7140625 758.3359375 -146.4140625 758.3359375 C-146.4140625 758.9959375 -146.4140625 759.6559375 -146.4140625 760.3359375 C-148.0640625 760.3359375 -149.7140625 760.3359375 -151.4140625 760.3359375 C-151.4140625 760.9959375 -151.4140625 761.6559375 -151.4140625 762.3359375 C-153.0640625 762.3359375 -154.7140625 762.3359375 -156.4140625 762.3359375 C-156.4140625 762.9959375 -156.4140625 763.6559375 -156.4140625 764.3359375 C-160.0440625 764.6659375 -163.6740625 764.9959375 -167.4140625 765.3359375 C-167.4140625 765.9959375 -167.4140625 766.6559375 -167.4140625 767.3359375 C-168.59162109 767.60857422 -168.59162109 767.60857422 -169.79296875 767.88671875 C-175.63759229 769.28512561 -180.94709598 770.8704428 -186.4140625 773.3359375 C-191.26085278 774.9803842 -195.29811802 775.54475156 -200.4140625 775.3359375 C-200.4140625 775.9959375 -200.4140625 776.6559375 -200.4140625 777.3359375 C-201.5484375 777.4803125 -202.6828125 777.6246875 -203.8515625 777.7734375 C-207.22183451 777.94765228 -207.22183451 777.94765228 -208.4140625 779.3359375 C-210.74739583 779.66927083 -213.08072917 780.00260417 -215.4140625 780.3359375 C-215.7440625 780.6659375 -216.0740625 780.9959375 -216.4140625 781.3359375 C-219.08465101 781.47708911 -221.73838488 781.37840857 -224.4140625 781.3359375 C-224.4140625 781.9959375 -224.4140625 782.6559375 -224.4140625 783.3359375 C-227.3840625 783.3359375 -230.3540625 783.3359375 -233.4140625 783.3359375 C-233.4140625 783.9959375 -233.4140625 784.6559375 -233.4140625 785.3359375 C-236.3840625 785.6659375 -239.3540625 785.9959375 -242.4140625 786.3359375 C-242.4140625 786.6659375 -242.4140625 786.9959375 -242.4140625 787.3359375 C-243.12949219 787.38492188 -243.84492187 787.43390625 -244.58203125 787.484375 C-253.11574642 788.12467963 -261.58698876 789.12604127 -269.97265625 790.8671875 C-273.33464609 791.51268955 -276.70141987 791.76464877 -280.109375 792.0546875 C-282.57012116 792.27741256 -282.57012116 792.27741256 -285.4140625 793.3359375 C-306.08199629 796.45549082 -327.42695493 795.6460613 -348.26196289 795.59667969 C-353.13287678 795.58526189 -358.00357276 795.59207599 -362.87447929 795.60355377 C-409.04300846 795.69619967 -409.04300846 795.69619967 -427.16777039 791.73443604 C-429.6594827 791.22494582 -429.6594827 791.22494582 -433.2265625 791.3359375 C-436.4140625 791.3359375 -436.4140625 791.3359375 -438.7956543 790.37548828 C-441.47213734 789.31288084 -443.63802678 788.94860314 -446.49609375 788.703125 C-447.42744141 788.61933594 -448.35878906 788.53554687 -449.31835938 788.44921875 C-450.27806641 788.37058594 -451.23777344 788.29195312 -452.2265625 788.2109375 C-453.20560547 788.12457031 -454.18464844 788.03820313 -455.19335938 787.94921875 C-457.59975228 787.73792571 -460.00652862 787.53372987 -462.4140625 787.3359375 C-462.4140625 787.0059375 -462.4140625 786.6759375 -462.4140625 786.3359375 C-465.7140625 786.0059375 -469.0140625 785.6759375 -472.4140625 785.3359375 C-472.4140625 785.0059375 -472.4140625 784.6759375 -472.4140625 784.3359375 C-473.5484375 784.1915625 -474.6828125 784.0471875 -475.8515625 783.8984375 C-479.4140625 783.3359375 -479.4140625 783.3359375 -480.4140625 782.3359375 C-481.5690625 782.1709375 -482.7240625 782.0059375 -483.9140625 781.8359375 C-487.4140625 781.3359375 -487.4140625 781.3359375 -488.4140625 780.3359375 C-489.76153334 780.10518668 -491.11783815 779.92440687 -492.4765625 779.7734375 C-493.7759375 779.6290625 -495.0753125 779.4846875 -496.4140625 779.3359375 C-496.4140625 778.6759375 -496.4140625 778.0159375 -496.4140625 777.3359375 C-497.3834375 777.3565625 -498.3528125 777.3771875 -499.3515625 777.3984375 C-502.4140625 777.3359375 -502.4140625 777.3359375 -503.4140625 776.3359375 C-504.4246875 776.2121875 -505.4353125 776.0884375 -506.4765625 775.9609375 C-509.98623934 775.40384594 -512.89171583 774.46987617 -516.17578125 773.15625 C-518.74412486 772.21497224 -521.32945385 771.52396848 -523.9765625 770.8359375 C-527.16211551 770.00131387 -529.89096085 769.12303645 -532.9140625 767.7734375 C-537.62941436 765.83677513 -542.39407232 765.10754539 -547.4140625 764.3359375 C-547.4140625 763.6759375 -547.4140625 763.0159375 -547.4140625 762.3359375 C-549.0640625 762.3359375 -550.7140625 762.3359375 -552.4140625 762.3359375 C-552.4140625 761.6759375 -552.4140625 761.0159375 -552.4140625 760.3359375 C-553.1359375 760.1915625 -553.8578125 760.0471875 -554.6015625 759.8984375 C-557.20572917 759.37760417 -559.80989583 758.85677083 -562.4140625 758.3359375 C-562.4140625 757.6759375 -562.4140625 757.0159375 -562.4140625 756.3359375 C-564.0640625 756.3359375 -565.7140625 756.3359375 -567.4140625 756.3359375 C-567.4140625 755.6759375 -567.4140625 755.0159375 -567.4140625 754.3359375 C-569.0640625 754.3359375 -570.7140625 754.3359375 -572.4140625 754.3359375 C-572.4140625 753.6759375 -572.4140625 753.0159375 -572.4140625 752.3359375 C-574.0640625 752.3359375 -575.7140625 752.3359375 -577.4140625 752.3359375 C-577.4140625 751.6759375 -577.4140625 751.0159375 -577.4140625 750.3359375 C-578.7340625 750.3359375 -580.0540625 750.3359375 -581.4140625 750.3359375 C-581.4140625 749.6759375 -581.4140625 749.0159375 -581.4140625 748.3359375 C-582.7340625 748.3359375 -584.0540625 748.3359375 -585.4140625 748.3359375 C-585.4140625 747.6759375 -585.4140625 747.0159375 -585.4140625 746.3359375 C-587.0640625 746.3359375 -588.7140625 746.3359375 -590.4140625 746.3359375 C-590.4140625 745.6759375 -590.4140625 745.0159375 -590.4140625 744.3359375 C-591.0946875 744.23152344 -591.7753125 744.12710938 -592.4765625 744.01953125 C-596.00913572 743.19745636 -599.09589612 741.86086212 -602.4140625 740.3984375 C-606.3942801 738.65280327 -610.36744079 736.92239715 -614.4140625 735.3359375 C-614.4140625 734.6759375 -614.4140625 734.0159375 -614.4140625 733.3359375 C-615.4040625 733.3359375 -616.3940625 733.3359375 -617.4140625 733.3359375 C-617.4140625 732.6759375 -617.4140625 732.0159375 -617.4140625 731.3359375 C-618.7340625 731.3359375 -620.0540625 731.3359375 -621.4140625 731.3359375 C-621.4140625 730.6759375 -621.4140625 730.0159375 -621.4140625 729.3359375 C-622.7340625 729.3359375 -624.0540625 729.3359375 -625.4140625 729.3359375 C-625.4140625 728.6759375 -625.4140625 728.0159375 -625.4140625 727.3359375 C-626.7340625 727.3359375 -628.0540625 727.3359375 -629.4140625 727.3359375 C-629.4140625 726.6759375 -629.4140625 726.0159375 -629.4140625 725.3359375 C-630.4040625 725.3359375 -631.3940625 725.3359375 -632.4140625 725.3359375 C-632.4140625 724.6759375 -632.4140625 724.0159375 -632.4140625 723.3359375 C-633.4040625 723.3359375 -634.3940625 723.3359375 -635.4140625 723.3359375 C-635.4140625 722.6759375 -635.4140625 722.0159375 -635.4140625 721.3359375 C-635.99671875 721.20703125 -636.579375 721.078125 -637.1796875 720.9453125 C-643.12010739 719.32519799 -648.43180998 715.80789471 -653.5546875 712.484375 C-655.45818085 711.30868793 -657.39983359 710.30740189 -659.4140625 709.3359375 C-659.4140625 708.6759375 -659.4140625 708.0159375 -659.4140625 707.3359375 C-660.4040625 707.3359375 -661.3940625 707.3359375 -662.4140625 707.3359375 C-662.4140625 706.0159375 -662.4140625 704.6959375 -662.4140625 703.3359375 C-660.4340625 703.3359375 -658.4540625 703.3359375 -656.4140625 703.3359375 C-656.4140625 703.9959375 -656.4140625 704.6559375 -656.4140625 705.3359375 C-655.6619751 705.33070068 -654.9098877 705.32546387 -654.13500977 705.32006836 C-650.74886908 705.29936523 -647.36274166 705.28629873 -643.9765625 705.2734375 C-642.79255859 705.26505859 -641.60855469 705.25667969 -640.38867188 705.24804688 C-639.26396484 705.24482422 -638.13925781 705.24160156 -636.98046875 705.23828125 C-635.93834229 705.23304443 -634.89621582 705.22780762 -633.82250977 705.22241211 C-631.4140625 705.3359375 -631.4140625 705.3359375 -630.4140625 706.3359375 C-628.05007782 706.4367187 -625.71594939 706.47566965 -623.3515625 706.46875 C-622.29183228 706.47018509 -622.29183228 706.47018509 -621.21069336 706.47164917 C-619.71435457 706.47233083 -618.21801283 706.47047755 -616.72167969 706.46630859 C-614.42376093 706.46096007 -612.12603764 706.46625401 -609.828125 706.47265625 C-608.37760373 706.47199547 -606.92708259 706.4707143 -605.4765625 706.46875 C-604.7848999 706.47077423 -604.0932373 706.47279846 -603.38061523 706.47488403 C-600.11670612 706.73824483 -600.11670612 706.73824483 -597.4140625 705.3359375 C-595.63536524 705.17829345 -593.85087774 705.08493073 -592.06640625 705.01953125 C-590.98681641 704.97763672 -589.90722656 704.93574219 -588.79492188 704.89257812 C-587.65861328 704.85326172 -586.52230469 704.81394531 -585.3515625 704.7734375 C-583.64129883 704.70866211 -583.64129883 704.70866211 -581.89648438 704.64257812 C-579.06914055 704.53610911 -576.24170512 704.43409543 -573.4140625 704.3359375 C-573.4140625 704.0059375 -573.4140625 703.6759375 -573.4140625 703.3359375 C-568.1340625 703.3359375 -562.8540625 703.3359375 -557.4140625 703.3359375 C-557.0840625 702.6759375 -556.7540625 702.0159375 -556.4140625 701.3359375 C-553.796875 700.95703125 -553.796875 700.95703125 -550.5390625 700.7734375 C-547.21290966 700.57707426 -544.58279425 700.39218142 -541.4140625 699.3359375 C-540.2178125 699.1709375 -539.0215625 699.0059375 -537.7890625 698.8359375 C-534.58299374 698.70348438 -534.58299374 698.70348438 -533.4140625 697.3359375 C-531.3567708 697.01670258 -529.29792729 696.82432398 -527.2265625 696.6171875 C-525.3973092 696.51595707 -525.3973092 696.51595707 -524.4140625 695.3359375 C-522.39841538 695.01035573 -520.37606856 694.72591303 -518.3515625 694.4609375 C-514.34719805 693.88262666 -510.72012882 693.25497653 -506.9765625 691.7109375 C-503.47147934 690.35809838 -501.12394896 690.05769602 -497.4140625 690.3359375 C-497.4140625 689.6759375 -497.4140625 689.0159375 -497.4140625 688.3359375 C-493.2944248 687.04350214 -489.74574567 686.07341125 -485.4140625 686.3359375 C-485.4140625 685.6759375 -485.4140625 685.0159375 -485.4140625 684.3359375 C-483.7640625 684.3359375 -482.1140625 684.3359375 -480.4140625 684.3359375 C-480.4140625 683.6759375 -480.4140625 683.0159375 -480.4140625 682.3359375 C-478.4340625 682.3359375 -476.4540625 682.3359375 -474.4140625 682.3359375 C-474.4140625 681.6759375 -474.4140625 681.0159375 -474.4140625 680.3359375 C-472.7640625 680.3359375 -471.1140625 680.3359375 -469.4140625 680.3359375 C-469.4140625 679.6759375 -469.4140625 679.0159375 -469.4140625 678.3359375 C-467.7640625 678.3359375 -466.1140625 678.3359375 -464.4140625 678.3359375 C-464.4140625 677.6759375 -464.4140625 677.0159375 -464.4140625 676.3359375 C-461.68636084 675.35252135 -458.95704145 674.37408697 -456.2265625 673.3984375 C-455.45763672 673.12064453 -454.68871094 672.84285156 -453.89648438 672.55664062 C-450.09070884 671.20093518 -446.4208261 669.97027482 -442.4140625 669.3359375 C-442.4140625 668.6759375 -442.4140625 668.0159375 -442.4140625 667.3359375 C-441.14714743 666.66185442 -439.87535501 665.99693253 -438.6015625 665.3359375 C-437.89386719 664.9646875 -437.18617188 664.5934375 -436.45703125 664.2109375 C-434.4140625 663.3359375 -434.4140625 663.3359375 -431.4140625 663.3359375 C-431.4140625 662.6759375 -431.4140625 662.0159375 -431.4140625 661.3359375 C-430.0940625 661.3359375 -428.7740625 661.3359375 -427.4140625 661.3359375 C-427.4140625 660.6759375 -427.4140625 660.0159375 -427.4140625 659.3359375 C-426.0940625 659.3359375 -424.7740625 659.3359375 -423.4140625 659.3359375 C-423.4140625 658.6759375 -423.4140625 658.0159375 -423.4140625 657.3359375 C-416.7890625 653.3359375 -416.7890625 653.3359375 -413.4140625 653.3359375 C-413.4140625 652.6759375 -413.4140625 652.0159375 -413.4140625 651.3359375 C-410.4440625 650.3459375 -407.4740625 649.3559375 -404.4140625 648.3359375 C-404.4140625 647.6759375 -404.4140625 647.0159375 -404.4140625 646.3359375 C-397.7890625 642.3359375 -397.7890625 642.3359375 -394.4140625 642.3359375 C-394.4140625 641.6759375 -394.4140625 641.0159375 -394.4140625 640.3359375 C-392.7640625 639.6759375 -391.1140625 639.0159375 -389.4140625 638.3359375 C-389.4140625 637.6759375 -389.4140625 637.0159375 -389.4140625 636.3359375 C-388.4240625 636.3359375 -387.4340625 636.3359375 -386.4140625 636.3359375 C-386.4140625 635.6759375 -386.4140625 635.0159375 -386.4140625 634.3359375 C-385.4240625 634.3359375 -384.4340625 634.3359375 -383.4140625 634.3359375 C-383.4140625 633.6759375 -383.4140625 633.0159375 -383.4140625 632.3359375 C-382.4240625 632.3359375 -381.4340625 632.3359375 -380.4140625 632.3359375 C-380.4140625 631.6759375 -380.4140625 631.0159375 -380.4140625 630.3359375 C-378.7640625 629.6759375 -377.1140625 629.0159375 -375.4140625 628.3359375 C-375.4140625 627.6759375 -375.4140625 627.0159375 -375.4140625 626.3359375 C-374.7540625 626.3359375 -374.0940625 626.3359375 -373.4140625 626.3359375 C-373.7440625 625.3459375 -374.0740625 624.3559375 -374.4140625 623.3359375 C-378.09622143 621.49485804 -382.65598024 621.9209085 -386.73632812 621.73046875 C-392.31332395 621.43667605 -392.31332395 621.43667605 -393.4140625 620.3359375 C-395.07610737 620.12818189 -396.74435741 619.96875495 -398.4140625 619.8359375 C-403.30295139 619.44704861 -403.30295139 619.44704861 -404.4140625 618.3359375 C-406.22183109 618.0351391 -408.0357303 617.77094584 -409.8515625 617.5234375 C-414.99513385 616.71097314 -419.39192496 615.34561194 -424.15625 613.28515625 C-427.18903767 612.01012614 -430.23652219 611.1789584 -433.4140625 610.3359375 C-434.4040625 610.0059375 -435.3940625 609.6759375 -436.4140625 609.3359375 C-437.0946875 609.1915625 -437.7753125 609.0471875 -438.4765625 608.8984375 C-440.4140625 608.3359375 -440.4140625 608.3359375 -442.4140625 606.3359375 C-444.28153632 605.73448984 -444.28153632 605.73448984 -446.3515625 605.3359375 C-449.40367582 604.69699041 -450.70058626 604.14492166 -453.4140625 602.3359375 C-453.4140625 601.6759375 -453.4140625 601.0159375 -453.4140625 600.3359375 C-454.0121875 600.1915625 -454.6103125 600.0471875 -455.2265625 599.8984375 C-456.97556654 599.4486936 -458.70083273 598.90701409 -460.4140625 598.3359375 C-460.4140625 597.6759375 -460.4140625 597.0159375 -460.4140625 596.3359375 C-461.0121875 596.1915625 -461.6103125 596.0471875 -462.2265625 595.8984375 C-463.97556654 595.4486936 -465.70083273 594.90701409 -467.4140625 594.3359375 C-467.4140625 593.6759375 -467.4140625 593.0159375 -467.4140625 592.3359375 C-468.4040625 592.3359375 -469.3940625 592.3359375 -470.4140625 592.3359375 C-470.4140625 591.6759375 -470.4140625 591.0159375 -470.4140625 590.3359375 C-471.4040625 590.3359375 -472.3940625 590.3359375 -473.4140625 590.3359375 C-473.4140625 589.6759375 -473.4140625 589.0159375 -473.4140625 588.3359375 C-474.4040625 588.3359375 -475.3940625 588.3359375 -476.4140625 588.3359375 C-476.4140625 587.6759375 -476.4140625 587.0159375 -476.4140625 586.3359375 C-477.4040625 586.3359375 -478.3940625 586.3359375 -479.4140625 586.3359375 C-479.4140625 585.6759375 -479.4140625 585.0159375 -479.4140625 584.3359375 C-481.0640625 584.0059375 -482.7140625 583.6759375 -484.4140625 583.3359375 C-484.4140625 582.6759375 -484.4140625 582.0159375 -484.4140625 581.3359375 C-485.0740625 581.3359375 -485.7340625 581.3359375 -486.4140625 581.3359375 C-486.4140625 580.6759375 -486.4140625 580.0159375 -486.4140625 579.3359375 C-486.9503125 579.0884375 -487.4865625 578.8409375 -488.0390625 578.5859375 C-490.9964607 577.02941213 -493.71130301 575.30158077 -496.4140625 573.3359375 C-496.4140625 572.6759375 -496.4140625 572.0159375 -496.4140625 571.3359375 C-497.0740625 571.3359375 -497.7340625 571.3359375 -498.4140625 571.3359375 C-498.4140625 570.6759375 -498.4140625 570.0159375 -498.4140625 569.3359375 C-499.0740625 569.3359375 -499.7340625 569.3359375 -500.4140625 569.3359375 C-500.4140625 568.6759375 -500.4140625 568.0159375 -500.4140625 567.3359375 C-501.0740625 567.3359375 -501.7340625 567.3359375 -502.4140625 567.3359375 C-502.4140625 566.6759375 -502.4140625 566.0159375 -502.4140625 565.3359375 C-503.0740625 565.3359375 -503.7340625 565.3359375 -504.4140625 565.3359375 C-504.4140625 564.6759375 -504.4140625 564.0159375 -504.4140625 563.3359375 C-505.0740625 563.3359375 -505.7340625 563.3359375 -506.4140625 563.3359375 C-506.4140625 562.6759375 -506.4140625 562.0159375 -506.4140625 561.3359375 C-507.7340625 560.6759375 -509.0540625 560.0159375 -510.4140625 559.3359375 C-510.4140625 558.6759375 -510.4140625 558.0159375 -510.4140625 557.3359375 C-511.0740625 557.3359375 -511.7340625 557.3359375 -512.4140625 557.3359375 C-516.4140625 552.86534926 -516.4140625 552.86534926 -516.4140625 550.3359375 C-517.0740625 550.3359375 -517.7340625 550.3359375 -518.4140625 550.3359375 C-518.7440625 549.0159375 -519.0740625 547.6959375 -519.4140625 546.3359375 C-520.0740625 546.3359375 -520.7340625 546.3359375 -521.4140625 546.3359375 C-523.0703125 544.21875 -523.0703125 544.21875 -524.9140625 541.4609375 C-527.43102931 537.70718582 -527.43102931 537.70718582 -530.4140625 534.3359375 C-530.0840625 533.6759375 -529.7540625 533.0159375 -529.4140625 532.3359375 C-530.0740625 532.3359375 -530.7340625 532.3359375 -531.4140625 532.3359375 C-531.4140625 531.3459375 -531.4140625 530.3559375 -531.4140625 529.3359375 C-532.0740625 529.3359375 -532.7340625 529.3359375 -533.4140625 529.3359375 C-537.4140625 522.5859375 -537.4140625 522.5859375 -537.4140625 520.3359375 C-538.0740625 520.3359375 -538.7340625 520.3359375 -539.4140625 520.3359375 C-539.4140625 519.3459375 -539.4140625 518.3559375 -539.4140625 517.3359375 C-540.0740625 517.3359375 -540.7340625 517.3359375 -541.4140625 517.3359375 C-541.4140625 516.0159375 -541.4140625 514.6959375 -541.4140625 513.3359375 C-542.0740625 513.3359375 -542.7340625 513.3359375 -543.4140625 513.3359375 C-543.4140625 512.0159375 -543.4140625 510.6959375 -543.4140625 509.3359375 C-544.0740625 509.3359375 -544.7340625 509.3359375 -545.4140625 509.3359375 C-545.4140625 507.6859375 -545.4140625 506.0359375 -545.4140625 504.3359375 C-546.0740625 504.3359375 -546.7340625 504.3359375 -547.4140625 504.3359375 C-549.17518194 499.69298625 -550.84368432 495.04707205 -552.4140625 490.3359375 C-552.8059375 489.4696875 -553.1978125 488.6034375 -553.6015625 487.7109375 C-554.5221197 485.02007798 -554.20335668 483.98930943 -553.4140625 481.3359375 C-552.71531006 481.47233643 -552.01655762 481.60873535 -551.29663086 481.74926758 C-543.17763418 483.23046735 -535.21875216 483.79512347 -526.9765625 484.0234375 C-525.0111853 484.08204956 -525.0111853 484.08204956 -523.00610352 484.1418457 C-496.82789428 484.81741692 -496.82789428 484.81741692 -471.4140625 479.3359375 C-471.4140625 478.6759375 -471.4140625 478.0159375 -471.4140625 477.3359375 C-472.93 477.3978125 -472.93 477.3978125 -474.4765625 477.4609375 C-478.59482302 477.33019907 -481.53236783 476.60342964 -485.4140625 475.3359375 C-485.4140625 474.6759375 -485.4140625 474.0159375 -485.4140625 473.3359375 C-486.4659375 473.3978125 -486.4659375 473.3978125 -487.5390625 473.4609375 C-490.79777878 473.31925418 -493.3700572 472.46859064 -496.4140625 471.3359375 C-496.4140625 470.6759375 -496.4140625 470.0159375 -496.4140625 469.3359375 C-497.0740625 469.2328125 -497.7340625 469.1296875 -498.4140625 469.0234375 C-505.99617771 467.28586943 -512.45949169 463.82425342 -519.22216797 460.11694336 C-521.93301196 458.63396043 -524.4751023 457.3155909 -527.4140625 456.3359375 C-527.4140625 455.6759375 -527.4140625 455.0159375 -527.4140625 454.3359375 C-528.4040625 454.3359375 -529.3940625 454.3359375 -530.4140625 454.3359375 C-531.4140625 453.3359375 -532.4140625 452.3359375 -533.4140625 451.3359375 C-535.39027236 450.28970875 -537.3877754 449.28153815 -539.4140625 448.3359375 C-539.4140625 447.6759375 -539.4140625 447.0159375 -539.4140625 446.3359375 C-540.4040625 446.3359375 -541.3940625 446.3359375 -542.4140625 446.3359375 C-542.4140625 445.6759375 -542.4140625 445.0159375 -542.4140625 444.3359375 C-543.0740625 444.3359375 -543.7340625 444.3359375 -544.4140625 444.3359375 C-544.4140625 443.6759375 -544.4140625 443.0159375 -544.4140625 442.3359375 C-545.4040625 442.3359375 -546.3940625 442.3359375 -547.4140625 442.3359375 C-547.4140625 441.6759375 -547.4140625 441.0159375 -547.4140625 440.3359375 C-549.0640625 439.6759375 -550.7140625 439.0159375 -552.4140625 438.3359375 C-552.4140625 437.6759375 -552.4140625 437.0159375 -552.4140625 436.3359375 C-553.0740625 436.3359375 -553.7340625 436.3359375 -554.4140625 436.3359375 C-554.4140625 435.6759375 -554.4140625 435.0159375 -554.4140625 434.3359375 C-555.0740625 434.3359375 -555.7340625 434.3359375 -556.4140625 434.3359375 C-556.4140625 433.6759375 -556.4140625 433.0159375 -556.4140625 432.3359375 C-557.0740625 432.3359375 -557.7340625 432.3359375 -558.4140625 432.3359375 C-558.4140625 431.6759375 -558.4140625 431.0159375 -558.4140625 430.3359375 C-559.7340625 430.0059375 -561.0540625 429.6759375 -562.4140625 429.3359375 C-562.4140625 428.6759375 -562.4140625 428.0159375 -562.4140625 427.3359375 C-563.0740625 427.3359375 -563.7340625 427.3359375 -564.4140625 427.3359375 C-564.4140625 426.6759375 -564.4140625 426.0159375 -564.4140625 425.3359375 C-565.0740625 425.3359375 -565.7340625 425.3359375 -566.4140625 425.3359375 C-566.4140625 424.6759375 -566.4140625 424.0159375 -566.4140625 423.3359375 C-567.0740625 423.3359375 -567.7340625 423.3359375 -568.4140625 423.3359375 C-571.4140625 419.87439904 -571.4140625 419.87439904 -571.4140625 417.3359375 C-572.0740625 417.3359375 -572.7340625 417.3359375 -573.4140625 417.3359375 C-573.4140625 416.6759375 -573.4140625 416.0159375 -573.4140625 415.3359375 C-574.0740625 415.3359375 -574.7340625 415.3359375 -575.4140625 415.3359375 C-575.4140625 414.6759375 -575.4140625 414.0159375 -575.4140625 413.3359375 C-576.0740625 413.3359375 -576.7340625 413.3359375 -577.4140625 413.3359375 C-577.4140625 412.6759375 -577.4140625 412.0159375 -577.4140625 411.3359375 C-578.0740625 411.3359375 -578.7340625 411.3359375 -579.4140625 411.3359375 C-583.4140625 405.92417279 -583.4140625 405.92417279 -583.4140625 403.3359375 C-584.0740625 403.3359375 -584.7340625 403.3359375 -585.4140625 403.3359375 C-585.4140625 402.6759375 -585.4140625 402.0159375 -585.4140625 401.3359375 C-586.0740625 401.3359375 -586.7340625 401.3359375 -587.4140625 401.3359375 C-588.0740625 399.3559375 -588.7340625 397.3759375 -589.4140625 395.3359375 C-590.0740625 395.3359375 -590.7340625 395.3359375 -591.4140625 395.3359375 C-591.7028125 394.6965625 -591.9915625 394.0571875 -592.2890625 393.3984375 C-593.24229701 391.18387671 -593.24229701 391.18387671 -595.4140625 390.3359375 C-596.7889774 387.43333939 -597.4140625 385.57455045 -597.4140625 382.3359375 C-598.0740625 382.3359375 -598.7340625 382.3359375 -599.4140625 382.3359375 C-599.7028125 381.5315625 -599.9915625 380.7271875 -600.2890625 379.8984375 C-601.14668818 377.2032907 -601.14668818 377.2032907 -603.4140625 376.3359375 C-603.76818594 375.00797459 -604.09927804 373.67377143 -604.4140625 372.3359375 C-605.0740625 371.3459375 -605.7340625 370.3559375 -606.4140625 369.3359375 C-606.5390625 366.6484375 -606.5390625 366.6484375 -606.4140625 364.3359375 C-607.0740625 364.3359375 -607.7340625 364.3359375 -608.4140625 364.3359375 C-608.4140625 362.6859375 -608.4140625 361.0359375 -608.4140625 359.3359375 C-609.0740625 359.3359375 -609.7340625 359.3359375 -610.4140625 359.3359375 C-612.01761351 355.82816966 -612.63443114 353.19238871 -612.4140625 349.3359375 C-613.0740625 349.3359375 -613.7340625 349.3359375 -614.4140625 349.3359375 C-614.4140625 347.6859375 -614.4140625 346.0359375 -614.4140625 344.3359375 C-615.0740625 344.3359375 -615.7340625 344.3359375 -616.4140625 344.3359375 C-616.7440625 342.3559375 -617.0740625 340.3759375 -617.4140625 338.3359375 C-617.7440625 338.3359375 -618.0740625 338.3359375 -618.4140625 338.3359375 C-618.4140625 335.6959375 -618.4140625 333.0559375 -618.4140625 330.3359375 C-619.0740625 330.3359375 -619.7340625 330.3359375 -620.4140625 330.3359375 C-620.47464844 329.69785156 -620.53523437 329.05976562 -620.59765625 328.40234375 C-620.68144531 327.57605469 -620.76523437 326.74976563 -620.8515625 325.8984375 C-620.93277344 325.07472656 -621.01398437 324.25101563 -621.09765625 323.40234375 C-621.20337065 321.34931725 -621.20337065 321.34931725 -622.4140625 320.3359375 C-622.62245265 318.69486508 -622.78157975 317.04737457 -622.9140625 315.3984375 C-623.16621193 311.73036285 -623.16621193 311.73036285 -624.4140625 308.3359375 C-624.56902013 306.08619589 -624.66417178 303.83222214 -624.73046875 301.578125 C-624.75124985 300.91507355 -624.77203094 300.25202209 -624.79344177 299.56887817 C-624.85885481 297.44967056 -624.91778355 295.3303385 -624.9765625 293.2109375 C-625.01975559 291.77472669 -625.06337014 290.33852848 -625.10742188 288.90234375 C-625.21452749 285.38034156 -625.31581825 281.85819925 -625.4140625 278.3359375 C-623.96769959 278.96634548 -622.52263443 279.59973149 -621.078125 280.234375 C-620.2732666 280.58677246 -619.4684082 280.93916992 -618.63916016 281.30224609 C-616.4140625 282.3359375 -616.4140625 282.3359375 -613.7890625 283.9609375 C-610.79414101 285.69483942 -607.73786361 286.41265941 -604.4140625 287.3359375 C-603.4240625 287.9959375 -602.4340625 288.6559375 -601.4140625 289.3359375 C-599.09467043 290.0495966 -596.75882801 290.7106667 -594.4140625 291.3359375 C-593.10079544 291.70824234 -591.78825628 292.08312712 -590.4765625 292.4609375 C-589.4659375 292.7496875 -588.4553125 293.0384375 -587.4140625 293.3359375 C-587.4140625 293.9959375 -587.4140625 294.6559375 -587.4140625 295.3359375 C-585.4340625 295.3359375 -583.4540625 295.3359375 -581.4140625 295.3359375 C-581.4140625 295.9959375 -581.4140625 296.6559375 -581.4140625 297.3359375 C-579.7125 297.305 -579.7125 297.305 -577.9765625 297.2734375 C-574.4140625 297.3359375 -574.4140625 297.3359375 -573.4140625 298.3359375 C-572.06659166 298.56668832 -570.71028685 298.74746813 -569.3515625 298.8984375 C-568.0521875 299.0428125 -566.7528125 299.1871875 -565.4140625 299.3359375 C-565.4140625 299.9959375 -565.4140625 300.6559375 -565.4140625 301.3359375 C-564.57101562 301.32433594 -563.72796875 301.31273437 -562.859375 301.30078125 C-561.76367188 301.29175781 -560.66796875 301.28273438 -559.5390625 301.2734375 C-557.90324219 301.25603516 -557.90324219 301.25603516 -556.234375 301.23828125 C-553.4140625 301.3359375 -553.4140625 301.3359375 -551.4140625 302.3359375 C-549.37351245 302.40659367 -547.33071993 302.42015726 -545.2890625 302.3984375 C-544.19335938 302.38941406 -543.09765625 302.38039063 -541.96875 302.37109375 C-541.12570312 302.35949219 -540.28265625 302.34789062 -539.4140625 302.3359375 C-540.2184375 301.7171875 -541.0228125 301.0984375 -541.8515625 300.4609375 C-544.4140625 298.3359375 -544.4140625 298.3359375 -545.4140625 296.3359375 C-547.05769384 295.61434326 -548.72456636 294.94242329 -550.4140625 294.3359375 C-550.4140625 293.6759375 -550.4140625 293.0159375 -550.4140625 292.3359375 C-551.0740625 292.3359375 -551.7340625 292.3359375 -552.4140625 292.3359375 C-552.4140625 291.6759375 -552.4140625 291.0159375 -552.4140625 290.3359375 C-553.0740625 290.3359375 -553.7340625 290.3359375 -554.4140625 290.3359375 C-554.4140625 289.6759375 -554.4140625 289.0159375 -554.4140625 288.3359375 C-554.98640625 288.078125 -555.55875 287.8203125 -556.1484375 287.5546875 C-558.62535245 286.22227808 -560.5481791 284.68537632 -562.6640625 282.8359375 C-563.37046875 282.2275 -564.076875 281.6190625 -564.8046875 280.9921875 C-566.4140625 279.3359375 -566.4140625 279.3359375 -566.4140625 277.3359375 C-567.0740625 277.3359375 -567.7340625 277.3359375 -568.4140625 277.3359375 C-568.4140625 276.6759375 -568.4140625 276.0159375 -568.4140625 275.3359375 C-569.0740625 275.3359375 -569.7340625 275.3359375 -570.4140625 275.3359375 C-570.4140625 274.6759375 -570.4140625 274.0159375 -570.4140625 273.3359375 C-571.0740625 273.3359375 -571.7340625 273.3359375 -572.4140625 273.3359375 C-572.7440625 272.0159375 -573.0740625 270.6959375 -573.4140625 269.3359375 C-574.0740625 269.3359375 -574.7340625 269.3359375 -575.4140625 269.3359375 C-575.4140625 268.6759375 -575.4140625 268.0159375 -575.4140625 267.3359375 C-576.0740625 267.3359375 -576.7340625 267.3359375 -577.4140625 267.3359375 C-581.4140625 261.92417279 -581.4140625 261.92417279 -581.4140625 259.3359375 C-582.0740625 259.3359375 -582.7340625 259.3359375 -583.4140625 259.3359375 C-583.4140625 258.6759375 -583.4140625 258.0159375 -583.4140625 257.3359375 C-584.0740625 257.3359375 -584.7340625 257.3359375 -585.4140625 257.3359375 C-586.0740625 255.3559375 -586.7340625 253.3759375 -587.4140625 251.3359375 C-588.0740625 251.3359375 -588.7340625 251.3359375 -589.4140625 251.3359375 C-590.8515625 249.1484375 -590.8515625 249.1484375 -592.4140625 246.3359375 C-592.9709375 245.4490625 -593.5278125 244.5621875 -594.1015625 243.6484375 C-595.4140625 241.3359375 -595.4140625 241.3359375 -595.4140625 239.3359375 C-596.0740625 239.3359375 -596.7340625 239.3359375 -597.4140625 239.3359375 C-597.4140625 238.6759375 -597.4140625 238.0159375 -597.4140625 237.3359375 C-598.0740625 237.0059375 -598.7340625 236.6759375 -599.4140625 236.3359375 C-599.9765625 234.5234375 -599.9765625 234.5234375 -600.4140625 232.3359375 C-600.5996875 231.5934375 -600.7853125 230.8509375 -600.9765625 230.0859375 C-601.1209375 229.5084375 -601.2653125 228.9309375 -601.4140625 228.3359375 C-602.0740625 228.3359375 -602.7340625 228.3359375 -603.4140625 228.3359375 C-603.5378125 227.7584375 -603.6615625 227.1809375 -603.7890625 226.5859375 C-604.32549219 224.32234284 -604.32549219 224.32234284 -605.4765625 222.3984375 C-606.60470174 219.91653117 -606.56383887 218.03191211 -606.4140625 215.3359375 C-607.0740625 215.3359375 -607.7340625 215.3359375 -608.4140625 215.3359375 C-608.4140625 214.0159375 -608.4140625 212.6959375 -608.4140625 211.3359375 C-609.0740625 211.3359375 -609.7340625 211.3359375 -610.4140625 211.3359375 C-610.4140625 209.3559375 -610.4140625 207.3759375 -610.4140625 205.3359375 C-611.0740625 205.3359375 -611.7340625 205.3359375 -612.4140625 205.3359375 C-614.00544335 201.15856276 -614.62684308 197.80432965 -614.4140625 193.3359375 C-615.0740625 193.3359375 -615.7340625 193.3359375 -616.4140625 193.3359375 C-616.4140625 191.0259375 -616.4140625 188.7159375 -616.4140625 186.3359375 C-617.0740625 186.3359375 -617.7340625 186.3359375 -618.4140625 186.3359375 C-618.4140625 183.3659375 -618.4140625 180.3959375 -618.4140625 177.3359375 C-619.0740625 177.3359375 -619.7340625 177.3359375 -620.4140625 177.3359375 C-620.47464844 176.55347656 -620.53523437 175.77101563 -620.59765625 174.96484375 C-620.68144531 173.95292969 -620.76523437 172.94101562 -620.8515625 171.8984375 C-620.93277344 170.88910156 -621.01398437 169.87976563 -621.09765625 168.83984375 C-621.14617718 166.39952971 -621.14617718 166.39952971 -622.4140625 165.3359375 C-622.81576123 160.84897154 -622.89553524 156.33793639 -623.0390625 151.8359375 C-623.06152039 151.16809235 -623.08397827 150.50024719 -623.1071167 149.81216431 C-623.41921763 140.20046239 -623.42873292 130.63625248 -623.0390625 121.0234375 C-622.99604004 119.95738281 -622.95301758 118.89132812 -622.90869141 117.79296875 C-622.55323159 110.47510659 -622.55323159 110.47510659 -621.4140625 109.3359375 C-621.18042369 107.48701804 -621.00102615 105.63105719 -620.8515625 103.7734375 C-620.76777344 102.76152344 -620.68398438 101.74960937 -620.59765625 100.70703125 C-620.53707031 99.92457031 -620.47648438 99.14210938 -620.4140625 98.3359375 C-619.7540625 98.3359375 -619.0940625 98.3359375 -618.4140625 98.3359375 C-618.4140625 95.3659375 -618.4140625 92.3959375 -618.4140625 89.3359375 C-617.7540625 89.3359375 -617.0940625 89.3359375 -616.4140625 89.3359375 C-616.4140625 87.0259375 -616.4140625 84.7159375 -616.4140625 82.3359375 C-615.7540625 82.3359375 -615.0940625 82.3359375 -614.4140625 82.3359375 C-614.4140625 80.3559375 -614.4140625 78.3759375 -614.4140625 76.3359375 C-613.7540625 76.3359375 -613.0940625 76.3359375 -612.4140625 76.3359375 C-612.4140625 74.3559375 -612.4140625 72.3759375 -612.4140625 70.3359375 C-611.7540625 70.3359375 -611.0940625 70.3359375 -610.4140625 70.3359375 C-610.4553125 69.6140625 -610.4965625 68.8921875 -610.5390625 68.1484375 C-610.40484945 65.12864381 -609.66235631 63.06658021 -608.4140625 60.3359375 C-607.7540625 60.3359375 -607.0940625 60.3359375 -606.4140625 60.3359375 C-606.3109375 59.1190625 -606.2078125 57.9021875 -606.1015625 56.6484375 C-605.64345041 52.88395122 -604.53168548 50.51237197 -602.4140625 47.3359375 C-602.135625 46.2221875 -602.135625 46.2221875 -601.8515625 45.0859375 C-601.7071875 44.5084375 -601.5628125 43.9309375 -601.4140625 43.3359375 C-600.7540625 43.0059375 -600.0940625 42.6759375 -599.4140625 42.3359375 C-599.4140625 41.6759375 -599.4140625 41.0159375 -599.4140625 40.3359375 C-597.275514 38.197389 -596.28130936 37.90938687 -593.4140625 37.3359375 C-593.4140625 37.9959375 -593.4140625 38.6559375 -593.4140625 39.3359375 C-592.7540625 39.3359375 -592.0940625 39.3359375 -591.4140625 39.3359375 C-591.4140625 39.9959375 -591.4140625 40.6559375 -591.4140625 41.3359375 C-590.7540625 41.3359375 -590.0940625 41.3359375 -589.4140625 41.3359375 C-587.46875 43.453125 -587.46875 43.453125 -585.2890625 46.2109375 C-584.20238281 47.56832031 -584.20238281 47.56832031 -583.09375 48.953125 C-581.4140625 51.3359375 -581.4140625 51.3359375 -581.4140625 53.3359375 C-580.7540625 53.3359375 -580.0940625 53.3359375 -579.4140625 53.3359375 C-579.4140625 53.9959375 -579.4140625 54.6559375 -579.4140625 55.3359375 C-578.7540625 55.3359375 -578.0940625 55.3359375 -577.4140625 55.3359375 C-577.4140625 55.9959375 -577.4140625 56.6559375 -577.4140625 57.3359375 C-576.7540625 57.3359375 -576.0940625 57.3359375 -575.4140625 57.3359375 C-574.0390625 58.69921875 -574.0390625 58.69921875 -572.4140625 60.6484375 C-568.5321318 65.23617378 -564.45767778 69.62607793 -560.35546875 74.015625 C-558.4140625 76.3359375 -558.4140625 76.3359375 -558.4140625 78.3359375 C-557.8365625 78.6040625 -557.2590625 78.8721875 -556.6640625 79.1484375 C-554.35856207 80.36522939 -552.39350058 81.63927629 -550.4140625 83.3359375 C-550.4140625 83.9959375 -550.4140625 84.6559375 -550.4140625 85.3359375 C-549.7540625 85.3359375 -549.0940625 85.3359375 -548.4140625 85.3359375 C-548.4140625 85.9959375 -548.4140625 86.6559375 -548.4140625 87.3359375 C-547.7540625 87.3359375 -547.0940625 87.3359375 -546.4140625 87.3359375 C-546.4140625 87.9959375 -546.4140625 88.6559375 -546.4140625 89.3359375 C-545.7540625 89.3359375 -545.0940625 89.3359375 -544.4140625 89.3359375 C-544.4140625 89.9959375 -544.4140625 90.6559375 -544.4140625 91.3359375 C-543.7540625 91.3359375 -543.0940625 91.3359375 -542.4140625 91.3359375 C-542.4140625 91.9959375 -542.4140625 92.6559375 -542.4140625 93.3359375 C-541.8159375 93.6246875 -541.2178125 93.9134375 -540.6015625 94.2109375 C-538.4140625 95.3359375 -538.4140625 95.3359375 -535.4140625 97.3359375 C-535.4140625 97.9959375 -535.4140625 98.6559375 -535.4140625 99.3359375 C-534.7540625 99.3359375 -534.0940625 99.3359375 -533.4140625 99.3359375 C-533.4140625 99.9959375 -533.4140625 100.6559375 -533.4140625 101.3359375 C-532.7540625 101.3359375 -532.0940625 101.3359375 -531.4140625 101.3359375 C-531.4140625 101.9959375 -531.4140625 102.6559375 -531.4140625 103.3359375 C-530.7540625 103.3359375 -530.0940625 103.3359375 -529.4140625 103.3359375 C-529.4140625 103.9959375 -529.4140625 104.6559375 -529.4140625 105.3359375 C-528.7540625 105.3359375 -528.0940625 105.3359375 -527.4140625 105.3359375 C-527.4140625 105.9959375 -527.4140625 106.6559375 -527.4140625 107.3359375 C-526.6715625 107.6040625 -525.9290625 107.8721875 -525.1640625 108.1484375 C-522.52344301 109.28870501 -520.55853406 110.42974056 -518.4140625 112.3359375 C-518.4140625 112.9959375 -518.4140625 113.6559375 -518.4140625 114.3359375 C-517.7540625 114.3359375 -517.0940625 114.3359375 -516.4140625 114.3359375 C-516.4140625 114.9959375 -516.4140625 115.6559375 -516.4140625 116.3359375 C-514.7640625 116.9959375 -513.1140625 117.6559375 -511.4140625 118.3359375 C-511.4140625 118.9959375 -511.4140625 119.6559375 -511.4140625 120.3359375 C-510.4240625 120.3359375 -509.4340625 120.3359375 -508.4140625 120.3359375 C-508.4140625 120.9959375 -508.4140625 121.6559375 -508.4140625 122.3359375 C-507.7540625 122.3359375 -507.0940625 122.3359375 -506.4140625 122.3359375 C-506.4140625 122.9959375 -506.4140625 123.6559375 -506.4140625 124.3359375 C-504.7640625 124.9959375 -503.1140625 125.6559375 -501.4140625 126.3359375 C-501.4140625 126.9959375 -501.4140625 127.6559375 -501.4140625 128.3359375 C-499.7640625 128.9959375 -498.1140625 129.6559375 -496.4140625 130.3359375 C-496.4140625 130.9959375 -496.4140625 131.6559375 -496.4140625 132.3359375 C-494.7640625 132.6659375 -493.1140625 132.9959375 -491.4140625 133.3359375 C-491.4140625 133.9959375 -491.4140625 134.6559375 -491.4140625 135.3359375 C-490.7540625 135.3359375 -490.0940625 135.3359375 -489.4140625 135.3359375 C-489.4140625 135.9959375 -489.4140625 136.6559375 -489.4140625 137.3359375 C-488.4240625 137.3359375 -487.4340625 137.3359375 -486.4140625 137.3359375 C-486.4140625 137.9959375 -486.4140625 138.6559375 -486.4140625 139.3359375 C-485.4240625 139.3359375 -484.4340625 139.3359375 -483.4140625 139.3359375 C-483.4140625 139.9959375 -483.4140625 140.6559375 -483.4140625 141.3359375 C-482.4240625 141.3359375 -481.4340625 141.3359375 -480.4140625 141.3359375 C-480.4140625 141.9959375 -480.4140625 142.6559375 -480.4140625 143.3359375 C-479.4240625 143.3359375 -478.4340625 143.3359375 -477.4140625 143.3359375 C-477.4140625 143.9959375 -477.4140625 144.6559375 -477.4140625 145.3359375 C-476.7540625 145.3359375 -476.0940625 145.3359375 -475.4140625 145.3359375 C-475.4140625 145.9959375 -475.4140625 146.6559375 -475.4140625 147.3359375 C-474.4240625 147.3359375 -473.4340625 147.3359375 -472.4140625 147.3359375 C-472.4140625 147.9959375 -472.4140625 148.6559375 -472.4140625 149.3359375 C-471.4240625 149.3359375 -470.4340625 149.3359375 -469.4140625 149.3359375 C-469.4140625 149.9959375 -469.4140625 150.6559375 -469.4140625 151.3359375 C-468.4240625 151.3359375 -467.4340625 151.3359375 -466.4140625 151.3359375 C-466.4140625 151.9959375 -466.4140625 152.6559375 -466.4140625 153.3359375 C-465.4240625 153.3359375 -464.4340625 153.3359375 -463.4140625 153.3359375 C-463.4140625 153.9959375 -463.4140625 154.6559375 -463.4140625 155.3359375 C-462.86363281 155.43132812 -462.31320312 155.52671875 -461.74609375 155.625 C-458.80193297 156.52254985 -456.65626081 157.99816947 -454.1015625 159.7109375 C-449.95888119 162.41534205 -446.03455667 164.59041748 -441.4140625 166.3359375 C-441.4140625 166.9959375 -441.4140625 167.6559375 -441.4140625 168.3359375 C-438.4440625 169.3259375 -438.4440625 169.3259375 -435.4140625 170.3359375 C-435.4140625 170.9959375 -435.4140625 171.6559375 -435.4140625 172.3359375 C-434.0940625 172.3359375 -432.7740625 172.3359375 -431.4140625 172.3359375 C-431.4140625 172.9959375 -431.4140625 173.6559375 -431.4140625 174.3359375 C-430.4240625 174.3359375 -429.4340625 174.3359375 -428.4140625 174.3359375 C-428.4140625 174.9959375 -428.4140625 175.6559375 -428.4140625 176.3359375 C-427.4240625 176.3359375 -426.4340625 176.3359375 -425.4140625 176.3359375 C-425.4140625 176.9959375 -425.4140625 177.6559375 -425.4140625 178.3359375 C-423.9909375 178.5525 -423.9909375 178.5525 -422.5390625 178.7734375 C-419.4140625 179.3359375 -419.4140625 179.3359375 -417.4140625 180.3359375 C-417.4140625 180.9959375 -417.4140625 181.6559375 -417.4140625 182.3359375 C-416.6096875 182.5215625 -416.6096875 182.5215625 -415.7890625 182.7109375 C-412.93504655 183.46199433 -410.17602409 184.29252979 -407.4140625 185.3359375 C-407.0840625 185.9959375 -406.7540625 186.6559375 -406.4140625 187.3359375 C-405.0940625 187.3359375 -403.7740625 187.3359375 -402.4140625 187.3359375 C-401.7540625 187.9959375 -401.0940625 188.6559375 -400.4140625 189.3359375 C-398.72707268 190.09370014 -397.01515617 190.79705532 -395.2890625 191.4609375 C-393.92394531 191.99074219 -393.92394531 191.99074219 -392.53125 192.53125 C-391.83257813 192.79679688 -391.13390625 193.06234375 -390.4140625 193.3359375 C-390.4140625 193.9959375 -390.4140625 194.6559375 -390.4140625 195.3359375 C-389.0940625 195.3359375 -387.7740625 195.3359375 -386.4140625 195.3359375 C-386.4140625 195.9959375 -386.4140625 196.6559375 -386.4140625 197.3359375 C-384.7640625 197.3359375 -383.1140625 197.3359375 -381.4140625 197.3359375 C-381.4140625 197.9959375 -381.4140625 198.6559375 -381.4140625 199.3359375 C-380.0940625 199.3359375 -378.7740625 199.3359375 -377.4140625 199.3359375 C-377.4140625 199.9959375 -377.4140625 200.6559375 -377.4140625 201.3359375 C-375.7640625 201.3359375 -374.1140625 201.3359375 -372.4140625 201.3359375 C-372.4140625 201.9959375 -372.4140625 202.6559375 -372.4140625 203.3359375 C-371.6715625 203.4803125 -370.9290625 203.6246875 -370.1640625 203.7734375 C-367.89378511 204.23781242 -365.65646771 204.75457319 -363.4140625 205.3359375 C-363.4140625 205.9959375 -363.4140625 206.6559375 -363.4140625 207.3359375 C-361.7640625 207.3359375 -360.1140625 207.3359375 -358.4140625 207.3359375 C-358.4140625 207.9959375 -358.4140625 208.6559375 -358.4140625 209.3359375 C-356.7640625 209.3359375 -355.1140625 209.3359375 -353.4140625 209.3359375 C-353.4140625 209.9959375 -353.4140625 210.6559375 -353.4140625 211.3359375 C-349.7840625 211.6659375 -346.1540625 211.9959375 -342.4140625 212.3359375 C-342.4140625 212.6659375 -342.4140625 212.9959375 -342.4140625 213.3359375 C-340.7640625 213.6659375 -339.1140625 213.9959375 -337.4140625 214.3359375 C-337.4140625 214.9959375 -337.4140625 215.6559375 -337.4140625 216.3359375 C-336.7128125 216.2946875 -336.0115625 216.2534375 -335.2890625 216.2109375 C-332.03034622 216.35262082 -329.4580678 217.20328436 -326.4140625 218.3359375 C-326.4140625 218.9959375 -326.4140625 219.6559375 -326.4140625 220.3359375 C-324.1040625 220.3359375 -321.7940625 220.3359375 -319.4140625 220.3359375 C-319.4140625 220.9959375 -319.4140625 221.6559375 -319.4140625 222.3359375 C-317.4340625 222.3359375 -315.4540625 222.3359375 -313.4140625 222.3359375 C-313.4140625 222.9959375 -313.4140625 223.6559375 -313.4140625 224.3359375 C-311.1040625 224.3359375 -308.7940625 224.3359375 -306.4140625 224.3359375 C-306.4140625 224.9959375 -306.4140625 225.6559375 -306.4140625 226.3359375 C-304.96 226.305 -304.96 226.305 -303.4765625 226.2734375 C-300.4140625 226.3359375 -300.4140625 226.3359375 -299.4140625 227.3359375 C-298.2590625 227.5009375 -297.1040625 227.6659375 -295.9140625 227.8359375 C-292.4140625 228.3359375 -292.4140625 228.3359375 -291.4140625 229.3359375 C-289.08588286 229.70354481 -286.752224 230.03835331 -284.4140625 230.3359375 C-284.4140625 230.9959375 -284.4140625 231.6559375 -284.4140625 232.3359375 C-283.2796875 232.2946875 -282.1453125 232.2534375 -280.9765625 232.2109375 C-277.03166666 232.20399226 -273.54624923 232.88579312 -269.73046875 233.828125 C-266.56162752 234.52281195 -263.39285389 234.81517226 -260.1640625 235.08984375 C-258.4140625 235.3359375 -258.4140625 235.3359375 -257.4140625 236.3359375 C-255.75201763 236.54369311 -254.08376759 236.70312005 -252.4140625 236.8359375 C-247.52517361 237.22482639 -247.52517361 237.22482639 -246.4140625 238.3359375 C-244.58500015 238.54431169 -242.75018116 238.70343409 -240.9140625 238.8359375 C-235.52517361 239.22482639 -235.52517361 239.22482639 -234.4140625 240.3359375 C-231.88809991 240.57247273 -229.38299043 240.75767442 -226.8515625 240.8984375 C-226.14064453 240.94162109 -225.42972656 240.98480469 -224.69726562 241.02929688 C-222.93644338 241.13565527 -221.1752793 241.23632596 -219.4140625 241.3359375 C-219.4140625 241.9959375 -219.4140625 242.6559375 -219.4140625 243.3359375 C-212.8140625 243.3359375 -206.2140625 243.3359375 -199.4140625 243.3359375 C-199.4140625 243.9959375 -199.4140625 244.6559375 -199.4140625 245.3359375 C-194.1340625 245.3359375 -188.8540625 245.3359375 -183.4140625 245.3359375 C-183.5584375 244.0365625 -183.7028125 242.7371875 -183.8515625 241.3984375 C-183.93277344 240.66753906 -184.01398438 239.93664062 -184.09765625 239.18359375 C-184.23292864 237.32453521 -184.23292864 237.32453521 -185.4140625 236.3359375 C-185.73852587 233.23550977 -185.92740691 230.133865 -186.1328125 227.0234375 C-186.12014049 224.41996998 -186.12014049 224.41996998 -187.4140625 223.3359375 C-187.51201561 221.95983868 -187.54204338 220.57879868 -187.54345703 219.19921875 C-187.54660919 218.32160889 -187.54976135 217.44399902 -187.55300903 216.53979492 C-187.54997269 215.108573 -187.54997269 215.108573 -187.546875 213.6484375 C-187.54831009 212.18917847 -187.54831009 212.18917847 -187.54977417 210.70043945 C-187.55045608 208.6391595 -187.54860103 206.57787742 -187.54443359 204.51660156 C-187.5390855 201.34956062 -187.54437822 198.1826615 -187.55078125 195.015625 C-187.55012047 193.01822885 -187.54883931 191.02083279 -187.546875 189.0234375 C-187.54889923 188.06928955 -187.55092346 187.1151416 -187.55300903 186.13208008 C-187.54985687 185.25447021 -187.54670471 184.37686035 -187.54345703 183.47265625 C-187.54226364 182.30802856 -187.54226364 182.30802856 -187.54104614 181.11987305 C-187.4140625 179.3359375 -187.4140625 179.3359375 -186.4140625 178.3359375 C-186.17924557 176.15300976 -186.00042927 173.96390576 -185.8515625 171.7734375 C-185.76777344 170.57589844 -185.68398438 169.37835937 -185.59765625 168.14453125 C-185.53707031 167.21769531 -185.47648437 166.29085937 -185.4140625 165.3359375 C-184.7540625 165.3359375 -184.0940625 165.3359375 -183.4140625 165.3359375 C-183.4140625 162.0359375 -183.4140625 158.7359375 -183.4140625 155.3359375 C-182.7540625 155.3359375 -182.0940625 155.3359375 -181.4140625 155.3359375 C-181.4759375 153.82 -181.4759375 153.82 -181.5390625 152.2734375 C-181.40832407 148.15517698 -180.68155464 145.21763217 -179.4140625 141.3359375 C-178.7540625 141.3359375 -178.0940625 141.3359375 -177.4140625 141.3359375 C-177.4759375 140.2840625 -177.4759375 140.2840625 -177.5390625 139.2109375 C-177.39737918 135.95222122 -176.54671564 133.3799428 -175.4140625 130.3359375 C-174.7540625 130.3359375 -174.0940625 130.3359375 -173.4140625 130.3359375 C-173.4553125 129.6140625 -173.4965625 128.8921875 -173.5390625 128.1484375 C-173.40484945 125.12864381 -172.66235631 123.06658021 -171.4140625 120.3359375 C-170.7540625 120.3359375 -170.0940625 120.3359375 -169.4140625 120.3359375 C-169.7440625 119.0159375 -170.0740625 117.6959375 -170.4140625 116.3359375 C-169.7540625 116.3359375 -169.0940625 116.3359375 -168.4140625 116.3359375 C-168.3109375 115.789375 -168.2078125 115.2428125 -168.1015625 114.6796875 C-166.96412626 110.80206396 -164.78524775 107.48551169 -162.7890625 103.9921875 C-161.60876364 101.71206471 -160.88646694 99.83968105 -160.4140625 97.3359375 C-159.7540625 97.3359375 -159.0940625 97.3359375 -158.4140625 97.3359375 C-158.0428125 96.2840625 -158.0428125 96.2840625 -157.6640625 95.2109375 C-156.24226012 91.94079202 -154.54159962 89.1948155 -152.4140625 86.3359375 C-151.7540625 86.3359375 -151.0940625 86.3359375 -150.4140625 86.3359375 C-150.4140625 85.3459375 -150.4140625 84.3559375 -150.4140625 83.3359375 C-149.7540625 83.3359375 -149.0940625 83.3359375 -148.4140625 83.3359375 C-148.4140625 82.3459375 -148.4140625 81.3559375 -148.4140625 80.3359375 C-147.7540625 80.3359375 -147.0940625 80.3359375 -146.4140625 80.3359375 C-146.4140625 79.6759375 -146.4140625 79.0159375 -146.4140625 78.3359375 C-145.7540625 78.3359375 -145.0940625 78.3359375 -144.4140625 78.3359375 C-144.1253125 77.5728125 -143.8365625 76.8096875 -143.5390625 76.0234375 C-142.4140625 73.3359375 -142.4140625 73.3359375 -140.4140625 70.3359375 C-139.7540625 70.3359375 -139.0940625 70.3359375 -138.4140625 70.3359375 C-138.0840625 69.0159375 -137.7540625 67.6959375 -137.4140625 66.3359375 C-136.4240625 66.3359375 -135.4340625 66.3359375 -134.4140625 66.3359375 C-134.4140625 65.6759375 -134.4140625 65.0159375 -134.4140625 64.3359375 C-133.7540625 64.3359375 -133.0940625 64.3359375 -132.4140625 64.3359375 C-132.1871875 63.7790625 -131.9603125 63.2221875 -131.7265625 62.6484375 C-130.03856214 59.67434162 -127.94729733 57.61584885 -125.4140625 55.3359375 C-124.7540625 55.3359375 -124.0940625 55.3359375 -123.4140625 55.3359375 C-123.4140625 54.6759375 -123.4140625 54.0159375 -123.4140625 53.3359375 C-122.7540625 53.3359375 -122.0940625 53.3359375 -121.4140625 53.3359375 C-121.4140625 52.6759375 -121.4140625 52.0159375 -121.4140625 51.3359375 C-120.7540625 51.3359375 -120.0940625 51.3359375 -119.4140625 51.3359375 C-119.4140625 50.6759375 -119.4140625 50.0159375 -119.4140625 49.3359375 C-118.7540625 49.3359375 -118.0940625 49.3359375 -117.4140625 49.3359375 C-117.4140625 48.6759375 -117.4140625 48.0159375 -117.4140625 47.3359375 C-116.7540625 47.3359375 -116.0940625 47.3359375 -115.4140625 47.3359375 C-115.4140625 46.6759375 -115.4140625 46.0159375 -115.4140625 45.3359375 C-114.4240625 45.3359375 -113.4340625 45.3359375 -112.4140625 45.3359375 C-112.4140625 44.6759375 -112.4140625 44.0159375 -112.4140625 43.3359375 C-111.7540625 43.3359375 -111.0940625 43.3359375 -110.4140625 43.3359375 C-110.4140625 42.6759375 -110.4140625 42.0159375 -110.4140625 41.3359375 C-109.4240625 41.3359375 -108.4340625 41.3359375 -107.4140625 41.3359375 C-107.4140625 40.6759375 -107.4140625 40.0159375 -107.4140625 39.3359375 C-106.7540625 39.3359375 -106.0940625 39.3359375 -105.4140625 39.3359375 C-105.4140625 38.6759375 -105.4140625 38.0159375 -105.4140625 37.3359375 C-102.45091965 35.27819941 -99.87306509 34.20068815 -96.4140625 33.3359375 C-96.0840625 32.6759375 -95.7540625 32.0159375 -95.4140625 31.3359375 C-92.8515625 30.7109375 -92.8515625 30.7109375 -90.4140625 30.3359375 C-90.4140625 29.6759375 -90.4140625 29.0159375 -90.4140625 28.3359375 C-87.4140625 26.3359375 -87.4140625 26.3359375 -84.4140625 26.3359375 C-84.4140625 25.6759375 -84.4140625 25.0159375 -84.4140625 24.3359375 C-81.76667334 22.875309 -80.51957916 22.3359375 -77.4140625 22.3359375 C-77.4140625 21.6759375 -77.4140625 21.0159375 -77.4140625 20.3359375 C-76.0940625 20.3359375 -74.7740625 20.3359375 -73.4140625 20.3359375 C-73.4140625 19.6759375 -73.4140625 19.0159375 -73.4140625 18.3359375 C-71.7640625 18.3359375 -70.1140625 18.3359375 -68.4140625 18.3359375 C-68.4140625 17.6759375 -68.4140625 17.0159375 -68.4140625 16.3359375 C-65.04308867 14.83772691 -63.20964131 14.3359375 -59.4140625 14.3359375 C-59.4140625 13.6759375 -59.4140625 13.0159375 -59.4140625 12.3359375 C-57.7640625 12.3359375 -56.1140625 12.3359375 -54.4140625 12.3359375 C-54.4140625 11.6759375 -54.4140625 11.0159375 -54.4140625 10.3359375 C-52.4340625 10.3359375 -50.4540625 10.3359375 -48.4140625 10.3359375 C-48.0840625 9.6759375 -47.7540625 9.0159375 -47.4140625 8.3359375 C-44.8671875 7.51953125 -44.8671875 7.51953125 -41.6640625 6.7734375 C-40.61734375 6.52464844 -39.570625 6.27585937 -38.4921875 6.01953125 C-36.61405778 5.60243391 -34.72929495 5.21247184 -32.8359375 4.87109375 C-30.39264107 4.40851214 -30.39264107 4.40851214 -28.13998413 3.37149048 C-19.31482653 0.01889291 -9.32991011 0.01969219 0 0 Z " fill="#1C9BEF" transform="translate(1199.4140625,613.6640625)"/>
<path d="" fill="#1D9BF0" transform="translate(0,0)"/>
<path d="" fill="#1C9BEF" transform="translate(0,0)"/>
<path d="" fill="#1C9BF1" transform="translate(0,0)"/>
<path d="" fill="#1C9AEF" transform="translate(0,0)"/>
<path d="" fill="#1D9BF0" transform="translate(0,0)"/>
<path d="" fill="#1D9AF0" transform="translate(0,0)"/>
<path d="" fill="#1C9CF1" transform="translate(0,0)"/>
</svg>
